<svg version="1.1" viewBox="0.0 0.0 917.2572178477691 387.87664041994753" fill="none" stroke="none" stroke-linecap="square" stroke-miterlimit="10" xmlns:xlink="http://www.w3.org/1999/xlink" xmlns="http://www.w3.org/2000/svg"><clipPath id="p.0"><path d="m0 0l917.2572 0l0 387.87665l-917.2572 0l0 -387.87665z" clip-rule="nonzero"/></clipPath><g clip-path="url(#p.0)"><path fill="#ffffff" d="m0 0l917.2572 0l0 387.87665l-917.2572 0z" fill-rule="evenodd"/><path fill="#000000" fill-opacity="0.0" d="m7.4615417 91.57267l108.850395 0l0 266.6457l-108.850395 0z" fill-rule="evenodd"/><path fill="#000000" d="m53.560596 121.92642q-1.265625 0.625 -2.703125 0.625q-1.21875 0 -1.90625 -0.484375q-0.6875 -0.5 -0.984375 -1.34375q-0.28125 -0.84375 -0.28125 -1.859375l0 -6.109375l-1.9375 0l0 -1.640625l1.9375 0l0 -3.125l1.859375 0l0 3.125l3.671875 0l0 1.640625l-3.671875 0l0 6.046875q0 1.171875 0.390625 1.625q0.40625 0.4375 1.25 0.4375q0.40625 0 0.84375 -0.09375q0.4375 -0.109375 0.96875 -0.359375l0.5625 1.515625zm7.8437347 -9.296875q-0.640625 0 -1.5 0.328125q-0.84375 0.3125 -2.046875 1.28125l0 8.09375l-1.84375 0l0 -16.765625l1.84375 0l0 7.046875q1.1875 -1.0 2.140625 -1.359375q0.953125 -0.359375 1.859375 -0.359375q1.5625 0 2.3906288 0.984375q0.828125 0.984375 0.828125 2.796875l0 7.65625l-1.8593788 0l0 -7.390625q0 -2.3125 -1.8125 -2.3125zm15.67107 9.046875q-1.015625 0.5 -2.046875 0.6875q-1.015625 0.1875 -1.875 0.1875q-2.421875 0 -3.609375 -1.375q-1.1875 -1.375 -1.1875 -3.78125l0 -1.359375q0 -2.328125 1.1875 -3.734375q1.1875 -1.40625 3.359375 -1.40625q1.15625 0 2.125 0.46875q0.96875 0.453125 1.53125 1.40625q0.578125 0.9375 0.578125 2.40625q0 0.953125 -0.265625 2.171875l-6.6875 0l0 0.046875q0 1.71875 0.71875 2.609375q0.71875 0.875 2.296875 0.875q0.734375 0 1.59375 -0.171875q0.875 -0.1875 1.71875 -0.578125l0.5625 1.546875zm-4.171875 -9.15625q-1.3125 0 -1.984375 0.859375q-0.65625 0.84375 -0.734375 2.390625l5.078125 0q0.0625 -0.421875 0.0625 -0.78125q0 -1.265625 -0.71875 -1.859375q-0.703125 -0.609375 -1.703125 -0.609375z" fill-rule="nonzero"/><path fill="#000000" d="m50.223484 170.45142l0 1.34375q0 1.71875 0.625 2.59375q0.640625 0.875 2.015625 0.875q1.359375 0 2.921875 -0.703125l0.578125 1.5625q-1.859375 0.828125 -3.609375 0.828125q-2.171875 0 -3.3125 -1.375q-1.125 -1.375 -1.125 -3.78125l0 -1.34375q0 -2.390625 1.125 -3.765625q1.140625 -1.390625 3.3125 -1.390625q0.8125 0 1.6875 0.21875q0.875 0.203125 1.75 0.59375l-0.5625 1.578125q-0.75 -0.3125 -1.4375 -0.484375q-0.6875 -0.1875 -1.328125 -0.1875q-1.375 0 -2.015625 0.875q-0.625 0.875 -0.625 2.5625zm17.047642 6.390625q-1.03125 0 -1.65625 -0.46875q-0.625 -0.484375 -0.875 -1.1875q-1.1093788 0.984375 -2.0156288 1.375q-0.90625 0.390625 -1.8125 0.390625q-1.46875 0 -2.171875 -0.9375q-0.703125 -0.953125 -0.703125 -2.34375q0 -0.921875 0.328125 -1.640625q0.34375 -0.734375 1.15625 -1.15625q0.828125 -0.421875 2.203125 -0.421875q0.609375 0 1.328125 0.09375q0.734375 0.078125 1.4843788 0.1875l0 -1.515625q0 -1.28125 -0.5625038 -1.734375q-0.546875 -0.46875 -1.609375 -0.46875q-1.453125 0 -3.25 0.796875l-0.578125 -1.546875q1.03125 -0.46875 1.984375 -0.71875q0.953125 -0.25 1.9375 -0.25q1.5781288 0 2.4062538 0.515625q0.84375 0.515625 1.15625 1.390625q0.328125 0.859375 0.328125 1.875l0 4.84375q0 0.53125 0.203125 0.890625q0.203125 0.34375 0.8125 0.34375l0.25 0l0 1.6875l-0.34375 0zm-7.406254 -3.1875q0 0.765625 0.359375 1.25q0.375 0.46875 1.046875 0.46875q0.59375 0 1.359375 -0.34375q0.78125 -0.359375 1.9062538 -1.421875l0 -1.421875q-1.5468788 -0.25 -2.7187538 -0.25q-1.046875 0 -1.5 0.4375q-0.453125 0.421875 -0.453125 1.28125zm16.544514 2.671875q-1.265625 0.625 -2.703125 0.625q-1.21875 0 -1.90625 -0.484375q-0.6875 -0.5 -0.984375 -1.34375q-0.28125 -0.84375 -0.28125 -1.859375l0 -6.109375l-1.9375 0l0 -1.640625l1.9375 0l0 -3.125l1.859375 0l0 3.125l3.671875 0l0 1.640625l-3.671875 0l0 6.046875q0 1.171875 0.390625 1.625q0.40625 0.4375 1.25 0.4375q0.40625 0 0.84375 -0.09375q0.4375 -0.109375 0.96875 -0.359375l0.5625 1.515625z" fill-rule="nonzero"/><path fill="#d9d9d9" d="m22.49893 209.37265l78.77562 0l0 27.199997l-78.77562 0l0 -27.199997z" fill-rule="nonzero"/><path fill="#000000" fill-opacity="0.0" d="m22.49893 209.0202l78.77561 0l0 27.16478l-78.77561 0l0 -27.16478z" fill-rule="nonzero"/><path fill="#000000" d="m33.842678 226.89828l0 1.875l-9.374998 -3.796875l0 -1.25l9.374998 -3.734375l0 1.765625l-6.749998 2.53125l6.749998 2.609375zm9.243729 -5.46875q-0.625 0 -1.421875 0.328125q-0.796875 0.328125 -2.0 1.28125l0 8.09375l-1.84375 0l0 -11.21875l1.765625 0l0 1.5625q1.203125 -0.984375 2.125 -1.375q0.921875 -0.40625 1.828125 -0.40625q1.078125 0 1.765625 0.484375q0.703125 0.484375 1.046875 1.390625q1.25 -1.0625 2.234375 -1.46875q0.984375 -0.40625 1.9375 -0.40625q1.5 0 2.28125 0.984375q0.796875 0.984375 0.796875 2.796875l0 7.65625l-1.859375 0l0 -7.390625q0 -2.3125 -1.671875 -2.3125q-0.640625 0 -1.453125 0.328125q-0.796875 0.328125 -1.984375 1.28125q0.015625 0.09375 0.015625 0.21875q0 0.109375 0 0.21875l0 7.65625l-1.859375 0l0 -7.390625q0 -2.3125 -1.703125 -2.3125zm22.610111 9.8125q-1.03125 0 -1.65625 -0.46875q-0.6250038 -0.484375 -0.8750038 -1.1875q-1.109375 0.984375 -2.015625 1.375q-0.90625 0.390625 -1.8125 0.390625q-1.46875 0 -2.171875 -0.9375q-0.703125 -0.953125 -0.703125 -2.34375q0 -0.921875 0.328125 -1.640625q0.34375 -0.734375 1.15625 -1.15625q0.828125 -0.421875 2.203125 -0.421875q0.609375 0 1.328125 0.09375q0.734375 0.078125 1.484375 0.1875l0 -1.515625q0 -1.28125 -0.5625 -1.734375q-0.546875 -0.46875 -1.609375 -0.46875q-1.453125 0 -3.25 0.796875l-0.578125 -1.546875q1.03125 -0.46875 1.984375 -0.71875q0.953125 -0.25 1.9375 -0.25q1.578125 0 2.40625 0.515625q0.8437538 0.515625 1.1562538 1.390625q0.328125 0.859375 0.328125 1.875l0 4.84375q0 0.53125 0.203125 0.890625q0.203125 0.34375 0.8125 0.34375l0.25 0l0 1.6875l-0.34375 0zm-7.406254 -3.1875q0 0.765625 0.359375 1.25q0.375 0.46875 1.046875 0.46875q0.59375 0 1.359375 -0.34375q0.78125 -0.359375 1.90625 -1.421875l0 -1.421875q-1.546875 -0.25 -2.71875 -0.25q-1.046875 0 -1.5 0.4375q-0.453125 0.421875 -0.453125 1.28125zm13.122639 1.65625q2.2656174 0 2.2656174 -1.546875q0 -0.65625 -0.40625 -1.03125q-0.40625 -0.390625 -1.5 -0.671875l-1.2499924 -0.3125q-1.375 -0.34375 -2.0625 -1.1875q-0.671875 -0.84375 -0.671875 -2.03125q0 -0.859375 0.375 -1.59375q0.390625 -0.734375 1.234375 -1.1875q0.84375 -0.453125 2.1718674 -0.453125q0.859375 0 1.75 0.1875q0.90625 0.1875 1.828125 0.640625l-0.578125 1.5625q-1.65625 -0.734375 -3.0 -0.734375q-1.9687424 0 -1.9687424 1.46875q0 0.5625 0.359375 0.96875q0.359375 0.40625 1.359375 0.65625l1.2499924 0.328125q1.5 0.359375 2.203125 1.171875q0.703125 0.8125 0.703125 2.109375q0 0.921875 -0.40625 1.6875q-0.390625 0.75 -1.265625 1.1875q-0.875 0.421875 -2.3437424 0.421875q-0.96875 0 -1.9375 -0.203125q-0.96875 -0.203125 -1.984375 -0.65625l0.5 -1.53125q0.96875 0.375 1.765625 0.5625q0.796875 0.1875 1.609375 0.1875zm13.936684 1.421875l-3.15625 -5.1875q-0.421875 0.4375 -0.90625 0.890625q-0.46875 0.453125 -1.0 0.90625l0 3.390625l-1.84375 0l0 -16.765625l1.84375 0l0 11.28125q1.484375 -1.421875 2.625 -2.78125q1.140625 -1.359375 2.09375 -2.953125l2.125 0q-0.8125 1.359375 -1.671875 2.515625q-0.84375 1.140625 -1.90625 2.3125l4.03125 6.390625l-2.234375 0zm13.946854 -6.09375l-9.375 3.734375l0 -1.78125l6.75 -2.546875l-6.75 -2.59375l0 -1.859375l9.375 3.796875l0 1.25z" fill-rule="nonzero"/><path fill="#000000" fill-opacity="0.0" d="m101.27454 209.0202l0 0l0 27.16478l0 0l0 -27.16478z" fill-rule="nonzero"/><path fill="#000000" d="m53.560596 285.1264q-1.265625 0.625 -2.703125 0.625q-1.21875 0 -1.90625 -0.484375q-0.6875 -0.5 -0.984375 -1.34375q-0.28125 -0.84375 -0.28125 -1.859375l0 -6.109375l-1.9375 0l0 -1.640625l1.9375 0l0 -3.125l1.859375 0l0 3.125l3.671875 0l0 1.640625l-3.671875 0l0 6.046875q0 1.171875 0.390625 1.625q0.40625 0.4375 1.25 0.4375q0.40625 0 0.84375 -0.09375q0.4375 -0.109375 0.96875 -0.359375l0.5625 1.515625zm7.8437347 -9.296875q-0.640625 0 -1.5 0.328125q-0.84375 0.3125 -2.046875 1.28125l0 8.09375l-1.84375 0l0 -16.765625l1.84375 0l0 7.046875q1.1875 -1.0 2.140625 -1.359375q0.953125 -0.359375 1.859375 -0.359375q1.5625 0 2.3906288 0.984375q0.828125 0.984375 0.828125 2.796875l0 7.65625l-1.8593788 0l0 -7.390625q0 -2.3125 -1.8125 -2.3125zm15.67107 9.046875q-1.015625 0.5 -2.046875 0.6875q-1.015625 0.1875 -1.875 0.1875q-2.421875 0 -3.609375 -1.375q-1.1875 -1.375 -1.1875 -3.78125l0 -1.359375q0 -2.328125 1.1875 -3.734375q1.1875 -1.40625 3.359375 -1.40625q1.15625 0 2.125 0.46875q0.96875 0.453125 1.53125 1.40625q0.578125 0.9375 0.578125 2.40625q0 0.953125 -0.265625 2.171875l-6.6875 0l0 0.046875q0 1.71875 0.71875 2.609375q0.71875 0.875 2.296875 0.875q0.734375 0 1.59375 -0.171875q0.875 -0.1875 1.71875 -0.578125l0.5625 1.546875zm-4.171875 -9.15625q-1.3125 0 -1.984375 0.859375q-0.65625 0.84375 -0.734375 2.390625l5.078125 0q0.0625 -0.421875 0.0625 -0.78125q0 -1.265625 -0.71875 -1.859375q-0.703125 -0.609375 -1.703125 -0.609375z" fill-rule="nonzero"/><path fill="#000000" d="m45.601254 330.22952q-0.625 0 -1.421875 0.328125q-0.796875 0.328125 -2.0 1.28125l0 8.09375l-1.84375 0l0 -11.21875l1.765625 0l0 1.5625q1.203125 -0.984375 2.125 -1.375q0.921875 -0.40625 1.828125 -0.40625q1.078125 0 1.765625 0.484375q0.703125 0.484375 1.046875 1.390625q1.25 -1.0625 2.234375 -1.46875q0.984375 -0.40625 1.9375 -0.40625q1.5 0 2.28125 0.984375q0.796875 0.984375 0.796875 2.796875l0 7.65625l-1.859375 0l0 -7.390625q0 -2.3125 -1.671875 -2.3125q-0.640625 0 -1.453125 0.328125q-0.796875 0.328125 -1.984375 1.28125q0.015625 0.09375 0.015625 0.21875q0 0.109375 0 0.21875l0 7.65625l-1.859375 0l0 -7.390625q0 -2.3125 -1.703125 -2.3125zm16.391357 -4.25l-2.09375 0l0 -2.09375l2.09375 0l0 2.09375zm-0.125 13.953125l-1.84375 0l0 -11.21875l1.84375 0l0 11.21875zm5.3367043 -6.28125l0 1.34375q0 1.71875 0.625 2.59375q0.640625 0.875 2.015625 0.875q1.359375 0 2.9218674 -0.703125l0.578125 1.5625q-1.859375 0.828125 -3.6093674 0.828125q-2.171875 0 -3.3125 -1.375q-1.125 -1.375 -1.125 -3.78125l0 -1.34375q0 -2.390625 1.125 -3.765625q1.140625 -1.390625 3.3125 -1.390625q0.8125 0 1.6875 0.21875q0.8749924 0.203125 1.7499924 0.59375l-0.5625 1.578125q-0.75 -0.3125 -1.4374924 -0.484375q-0.6875 -0.1875 -1.328125 -0.1875q-1.375 0 -2.015625 0.875q-0.625 0.875 -0.625 2.5625zm16.939796 5.625q-1.015625 0.5 -2.046875 0.6875q-1.015625 0.1875 -1.875 0.1875q-2.421875 0 -3.609375 -1.375q-1.1875 -1.375 -1.1875 -3.78125l0 -1.359375q0 -2.328125 1.1875 -3.734375q1.1875 -1.40625 3.359375 -1.40625q1.15625 0 2.125 0.46875q0.96875 0.453125 1.53125 1.40625q0.578125 0.9375 0.578125 2.40625q0 0.953125 -0.265625 2.171875l-6.6875 0l0 0.046875q0 1.71875 0.71875 2.609375q0.71875 0.875 2.296875 0.875q0.734375 0 1.59375 -0.171875q0.875 -0.1875 1.71875 -0.578125l0.5625 1.546875zm-4.171875 -9.15625q-1.3125 0 -1.984375 0.859375q-0.65625 0.84375 -0.734375 2.390625l5.078125 0q0.0625 -0.421875 0.0625 -0.78125q0 -1.265625 -0.71875 -1.859375q-0.703125 -0.609375 -1.703125 -0.609375z" fill-rule="nonzero"/><path fill="#b6d7a8" d="m302.77258 189.66458l123.590546 0l0 68.50394l-123.590546 0z" fill-rule="evenodd"/><path fill="#000000" d="m340.3484 216.7703l2.671875 11.46875l6.796875 -11.46875l2.265625 0l-2.71875 15.40625l-1.859375 0l1.15625 -6.59375l1.21875 -5.796875l-6.296875 10.578125l-1.859375 0l-2.421875 -10.8125l-0.859375 6.03125l-1.15625 6.59375l-1.875 0l2.71875 -15.40625l2.21875 0zm23.375732 9.5625l-0.171875 1.125q-0.359375 2.40625 -1.71875 3.671875q-1.34375 1.265625 -3.5 1.265625q-1.578125 0 -2.609375 -0.71875q-1.03125 -0.71875 -1.4375 -1.984375q-0.40625 -1.28125 -0.15625 -2.890625l0.171875 -1.15625q0.390625 -2.296875 1.703125 -3.59375q1.328125 -1.3125 3.515625 -1.3125q1.609375 0 2.625 0.75q1.015625 0.734375 1.421875 2.0q0.40625 1.25 0.15625 2.84375zm-1.921875 -0.046875q0.265625 -1.703125 -0.328125 -2.765625q-0.578125 -1.078125 -1.984375 -1.078125q-1.3125 0 -2.171875 0.84375q-0.84375 0.828125 -1.09375 2.359375l-0.171875 1.203125q-0.28125 1.75 0.3125 2.8125q0.609375 1.0625 2.0 1.0625q1.3125 0 2.15625 -0.828125q0.859375 -0.828125 1.09375 -2.4375l0.1875 -1.171875zm11.130463 5.890625l0.328125 -2.0q-1.0625 1.25 -2.03125 1.734375q-0.953125 0.484375 -1.84375 0.484375q-1.125 0 -1.859375 -0.6875q-0.71875 -0.703125 -1.0 -1.921875q-0.265625 -1.234375 -0.03125 -2.78125l0.15625 -1.109375q0.359375 -2.46875 1.6875 -3.8125q1.328125 -1.34375 3.5625 -1.34375q0.75 0 1.453125 0.1875q0.703125 0.171875 1.390625 0.484375l1.0625 -6.0l1.859375 0l-2.96875 16.765625l-1.765625 0zm-4.515625 -5.171875q-0.25 1.796875 0.125 2.765625q0.390625 0.953125 1.375 0.953125q0.71875 0 1.640625 -0.625q0.9375 -0.640625 2.046875 -2.21875l0.84375 -4.78125q-1.25 -0.65625 -2.421875 -0.65625q-1.515625 0 -2.359375 0.921875q-0.84375 0.921875 -1.09375 2.53125l-0.15625 1.109375zm18.557007 4.71875q-0.96875 0.359375 -1.875 0.515625q-0.90625 0.15625 -1.734375 0.15625q-1.8125 0 -2.84375 -0.734375q-1.015625 -0.734375 -1.359375 -2.0q-0.34375 -1.265625 -0.09375 -2.859375l0.203125 -1.15625q0.359375 -2.21875 1.703125 -3.5625q1.359375 -1.34375 3.421875 -1.34375q1.015625 0 1.90625 0.359375q0.90625 0.359375 1.4375 1.140625q0.546875 0.765625 0.546875 1.96875q0 0.65625 -0.203125 1.390625q-0.1875 0.734375 -0.703125 1.59375l-6.546875 0q-0.203125 1.5625 0.359375 2.546875q0.578125 0.984375 2.34375 0.984375q0.625 0 1.4375 -0.140625q0.828125 -0.15625 1.703125 -0.4375l0.296875 1.578125zm-2.65625 -9.328125q-1.28125 0 -2.125 0.84375q-0.84375 0.84375 -1.09375 2.375l5.078125 0q0.1875 -0.390625 0.234375 -0.734375q0.0625 -0.34375 0.0625 -0.625q0 -0.953125 -0.609375 -1.40625q-0.609375 -0.453125 -1.546875 -0.453125zm6.3007507 6.953125l2.453125 -13.9375l1.859375 0l-2.453125 13.953125q-0.09375 0.640625 0.03125 0.9375q0.125 0.296875 0.765625 0.296875l0.34375 0l-0.328125 1.6875l-0.375 0q-1.5625 0 -2.046875 -0.828125q-0.46875 -0.828125 -0.25 -2.109375z" fill-rule="nonzero"/><path fill="#d9d9d9" d="m473.92386 106.18881l25.13385 0l0 24.409454l-25.13385 0z" fill-rule="evenodd"/><path stroke="#b7b7b7" stroke-width="1.0" stroke-linejoin="round" stroke-linecap="butt" d="m473.92386 106.18881l25.13385 0l0 24.409454l-25.13385 0z" fill-rule="evenodd"/><path fill="#d9d9d9" d="m499.04965 106.18881l25.13382 0l0 24.409454l-25.13382 0z" fill-rule="evenodd"/><path stroke="#b7b7b7" stroke-width="1.0" stroke-linejoin="round" stroke-linecap="butt" d="m499.04965 106.18881l25.13382 0l0 24.409454l-25.13382 0z" fill-rule="evenodd"/><path fill="#d9d9d9" d="m549.3012 106.18881l25.13385 0l0 24.409454l-25.13385 0z" fill-rule="evenodd"/><path stroke="#b7b7b7" stroke-width="1.0" stroke-linejoin="round" stroke-linecap="butt" d="m549.3012 106.18881l25.13385 0l0 24.409454l-25.13385 0z" fill-rule="evenodd"/><path fill="#d9d9d9" d="m473.92386 154.78944l25.13385 0l0 24.40944l-25.13385 0z" fill-rule="evenodd"/><path stroke="#b7b7b7" stroke-width="1.0" stroke-linejoin="round" stroke-linecap="butt" d="m473.92386 154.78944l25.13385 0l0 24.40944l-25.13385 0z" fill-rule="evenodd"/><path fill="#d9d9d9" d="m499.04965 154.78944l25.13382 0l0 24.40944l-25.13382 0z" fill-rule="evenodd"/><path stroke="#b7b7b7" stroke-width="1.0" stroke-linejoin="round" stroke-linecap="butt" d="m499.04965 154.78944l25.13382 0l0 24.40944l-25.13382 0z" fill-rule="evenodd"/><path fill="#d9d9d9" d="m549.3012 154.78944l25.13385 0l0 24.40944l-25.13385 0z" fill-rule="evenodd"/><path stroke="#b7b7b7" stroke-width="1.0" stroke-linejoin="round" stroke-linecap="butt" d="m549.3012 154.78944l25.13385 0l0 24.40944l-25.13385 0z" fill-rule="evenodd"/><path fill="#ffd966" d="m473.92386 211.33124l25.13385 0l0 24.409454l-25.13385 0z" fill-rule="evenodd"/><path stroke="#000000" stroke-width="1.0" stroke-linejoin="round" stroke-linecap="butt" d="m473.92386 211.33124l25.13385 0l0 24.409454l-25.13385 0z" fill-rule="evenodd"/><path fill="#ffd966" d="m499.04965 211.33124l25.13382 0l0 24.409454l-25.13382 0z" fill-rule="evenodd"/><path stroke="#000000" stroke-width="1.0" stroke-linejoin="round" stroke-linecap="butt" d="m499.04965 211.33124l25.13382 0l0 24.409454l-25.13382 0z" fill-rule="evenodd"/><path fill="#ffd966" d="m549.3012 211.33124l25.13385 0l0 24.409454l-25.13385 0z" fill-rule="evenodd"/><path stroke="#000000" stroke-width="1.0" stroke-linejoin="round" stroke-linecap="butt" d="m549.3012 211.33124l25.13385 0l0 24.409454l-25.13385 0z" fill-rule="evenodd"/><path fill="#d9d9d9" d="m473.92386 318.9696l25.13385 0l0 24.409454l-25.13385 0z" fill-rule="evenodd"/><path stroke="#b7b7b7" stroke-width="1.0" stroke-linejoin="round" stroke-linecap="butt" d="m473.92386 318.9696l25.13385 0l0 24.409454l-25.13385 0z" fill-rule="evenodd"/><path fill="#d9d9d9" d="m499.04965 318.9696l25.13382 0l0 24.409454l-25.13382 0z" fill-rule="evenodd"/><path stroke="#b7b7b7" stroke-width="1.0" stroke-linejoin="round" stroke-linecap="butt" d="m499.04965 318.9696l25.13382 0l0 24.409454l-25.13382 0z" fill-rule="evenodd"/><path fill="#d9d9d9" d="m549.3012 318.9696l25.13385 0l0 24.409454l-25.13385 0z" fill-rule="evenodd"/><path stroke="#b7b7b7" stroke-width="1.0" stroke-linejoin="round" stroke-linecap="butt" d="m549.3012 318.9696l25.13385 0l0 24.409454l-25.13385 0z" fill-rule="evenodd"/><path fill="#000000" fill-opacity="0.0" d="m525.63116 130.85127l23.874023 0" fill-rule="evenodd"/><path stroke="#999999" stroke-width="1.0" stroke-linejoin="round" stroke-linecap="butt" stroke-dasharray="1.0,3.0" d="m525.63116 130.85127l23.874023 0" fill-rule="evenodd"/><path fill="#000000" fill-opacity="0.0" d="m525.63116 154.79726l23.874023 0" fill-rule="evenodd"/><path stroke="#999999" stroke-width="1.0" stroke-linejoin="round" stroke-linecap="butt" stroke-dasharray="1.0,3.0" d="m525.63116 154.79726l23.874023 0" fill-rule="evenodd"/><path fill="#000000" fill-opacity="0.0" d="m525.63116 235.60289l23.874023 0" fill-rule="evenodd"/><path stroke="#000000" stroke-width="1.0" stroke-linejoin="round" stroke-linecap="butt" stroke-dasharray="1.0,3.0" d="m525.63116 235.60289l23.874023 0" fill-rule="evenodd"/><path fill="#000000" fill-opacity="0.0" d="m525.63116 211.34688l23.874023 0" fill-rule="evenodd"/><path stroke="#000000" stroke-width="1.0" stroke-linejoin="round" stroke-linecap="butt" stroke-dasharray="1.0,3.0" d="m525.63116 211.34688l23.874023 0" fill-rule="evenodd"/><path fill="#000000" fill-opacity="0.0" d="m525.63116 179.2565l23.874023 0" fill-rule="evenodd"/><path stroke="#999999" stroke-width="1.0" stroke-linejoin="round" stroke-linecap="butt" stroke-dasharray="1.0,3.0" d="m525.63116 179.2565l23.874023 0" fill-rule="evenodd"/><path fill="#000000" fill-opacity="0.0" d="m525.63116 318.8159l23.874023 0" fill-rule="evenodd"/><path stroke="#999999" stroke-width="1.0" stroke-linejoin="round" stroke-linecap="butt" stroke-dasharray="1.0,3.0" d="m525.63116 318.8159l23.874023 0" fill-rule="evenodd"/><path fill="#d9d9d9" d="m473.92386 265.2273l25.13385 0l0 24.409424l-25.13385 0z" fill-rule="evenodd"/><path stroke="#b7b7b7" stroke-width="1.0" stroke-linejoin="round" stroke-linecap="butt" d="m473.92386 265.2273l25.13385 0l0 24.409424l-25.13385 0z" fill-rule="evenodd"/><path fill="#d9d9d9" d="m499.04965 265.2273l25.13382 0l0 24.409424l-25.13382 0z" fill-rule="evenodd"/><path stroke="#b7b7b7" stroke-width="1.0" stroke-linejoin="round" stroke-linecap="butt" d="m499.04965 265.2273l25.13382 0l0 24.409424l-25.13382 0z" fill-rule="evenodd"/><path fill="#d9d9d9" d="m549.3012 265.2273l25.13385 0l0 24.409424l-25.13385 0z" fill-rule="evenodd"/><path stroke="#b7b7b7" stroke-width="1.0" stroke-linejoin="round" stroke-linecap="butt" d="m549.3012 265.2273l25.13385 0l0 24.409424l-25.13385 0z" fill-rule="evenodd"/><path fill="#000000" fill-opacity="0.0" d="m525.63116 265.07358l23.874023 0" fill-rule="evenodd"/><path stroke="#999999" stroke-width="1.0" stroke-linejoin="round" stroke-linecap="butt" stroke-dasharray="1.0,3.0" d="m525.63116 265.07358l23.874023 0" fill-rule="evenodd"/><path fill="#000000" fill-opacity="0.0" d="m525.63116 289.64484l23.874023 0" fill-rule="evenodd"/><path stroke="#999999" stroke-width="1.0" stroke-linejoin="round" stroke-linecap="butt" stroke-dasharray="1.0,3.0" d="m525.63116 289.64484l23.874023 0" fill-rule="evenodd"/><path fill="#000000" fill-opacity="0.0" d="m525.63116 343.38718l23.874023 0" fill-rule="evenodd"/><path stroke="#999999" stroke-width="1.0" stroke-linejoin="round" stroke-linecap="butt" stroke-dasharray="1.0,3.0" d="m525.63116 343.38718l23.874023 0" fill-rule="evenodd"/><path fill="#000000" fill-opacity="0.0" d="m525.63116 107.023834l23.874023 0" fill-rule="evenodd"/><path stroke="#999999" stroke-width="1.0" stroke-linejoin="round" stroke-linecap="butt" stroke-dasharray="1.0,3.0" d="m525.63116 107.023834l23.874023 0" fill-rule="evenodd"/><path fill="#000000" fill-opacity="0.0" d="m116.311935 224.89551l42.960632 -1.5433044" fill-rule="evenodd"/><path stroke="#000000" stroke-width="2.0" stroke-linejoin="round" stroke-linecap="butt" d="m116.311935 224.89551l30.968369 -1.1124878" fill-rule="evenodd"/><path fill="#000000" stroke="#000000" stroke-width="2.0" stroke-linecap="butt" d="m147.3989 227.08434l8.951752 -3.6271667l-9.188934 -2.9754944z" fill-rule="evenodd"/><path fill="#d9d9d9" d="m159.28323 105.99081l25.133865 0l0 24.409447l-25.133865 0z" fill-rule="evenodd"/><path stroke="#b7b7b7" stroke-width="1.0" stroke-linejoin="round" stroke-linecap="butt" d="m159.28323 105.99081l25.133865 0l0 24.409447l-25.133865 0z" fill-rule="evenodd"/><path fill="#d9d9d9" d="m184.40903 105.99081l25.13385 0l0 24.409447l-25.13385 0z" fill-rule="evenodd"/><path stroke="#b7b7b7" stroke-width="1.0" stroke-linejoin="round" stroke-linecap="butt" d="m184.40903 105.99081l25.13385 0l0 24.409447l-25.13385 0z" fill-rule="evenodd"/><path fill="#d9d9d9" d="m234.66058 105.99081l25.13385 0l0 24.409447l-25.13385 0z" fill-rule="evenodd"/><path stroke="#b7b7b7" stroke-width="1.0" stroke-linejoin="round" stroke-linecap="butt" d="m234.66058 105.99081l25.13385 0l0 24.409447l-25.13385 0z" fill-rule="evenodd"/><path fill="#d9d9d9" d="m159.28323 154.59143l25.133865 0l0 24.409454l-25.133865 0z" fill-rule="evenodd"/><path stroke="#b7b7b7" stroke-width="1.0" stroke-linejoin="round" stroke-linecap="butt" d="m159.28323 154.59143l25.133865 0l0 24.409454l-25.133865 0z" fill-rule="evenodd"/><path fill="#d9d9d9" d="m184.40903 154.59143l25.13385 0l0 24.409454l-25.13385 0z" fill-rule="evenodd"/><path stroke="#b7b7b7" stroke-width="1.0" stroke-linejoin="round" stroke-linecap="butt" d="m184.40903 154.59143l25.13385 0l0 24.409454l-25.13385 0z" fill-rule="evenodd"/><path fill="#d9d9d9" d="m234.66058 154.59143l25.13385 0l0 24.409454l-25.13385 0z" fill-rule="evenodd"/><path stroke="#b7b7b7" stroke-width="1.0" stroke-linejoin="round" stroke-linecap="butt" d="m234.66058 154.59143l25.13385 0l0 24.409454l-25.13385 0z" fill-rule="evenodd"/><path fill="#ffd966" d="m159.28323 211.13322l25.133865 0l0 24.409454l-25.133865 0z" fill-rule="evenodd"/><path stroke="#000000" stroke-width="1.0" stroke-linejoin="round" stroke-linecap="butt" d="m159.28323 211.13322l25.133865 0l0 24.409454l-25.133865 0z" fill-rule="evenodd"/><path fill="#ffd966" d="m184.40903 211.13322l25.13385 0l0 24.409454l-25.13385 0z" fill-rule="evenodd"/><path stroke="#000000" stroke-width="1.0" stroke-linejoin="round" stroke-linecap="butt" d="m184.40903 211.13322l25.13385 0l0 24.409454l-25.13385 0z" fill-rule="evenodd"/><path fill="#ffd966" d="m234.66058 211.13322l25.13385 0l0 24.409454l-25.13385 0z" fill-rule="evenodd"/><path stroke="#000000" stroke-width="1.0" stroke-linejoin="round" stroke-linecap="butt" d="m234.66058 211.13322l25.13385 0l0 24.409454l-25.13385 0z" fill-rule="evenodd"/><path fill="#d9d9d9" d="m159.28323 318.7716l25.133865 0l0 24.409454l-25.133865 0z" fill-rule="evenodd"/><path stroke="#b7b7b7" stroke-width="1.0" stroke-linejoin="round" stroke-linecap="butt" d="m159.28323 318.7716l25.133865 0l0 24.409454l-25.133865 0z" fill-rule="evenodd"/><path fill="#d9d9d9" d="m184.40903 318.7716l25.13385 0l0 24.409454l-25.13385 0z" fill-rule="evenodd"/><path stroke="#b7b7b7" stroke-width="1.0" stroke-linejoin="round" stroke-linecap="butt" d="m184.40903 318.7716l25.13385 0l0 24.409454l-25.13385 0z" fill-rule="evenodd"/><path fill="#d9d9d9" d="m234.66058 318.7716l25.13385 0l0 24.409454l-25.13385 0z" fill-rule="evenodd"/><path stroke="#b7b7b7" stroke-width="1.0" stroke-linejoin="round" stroke-linecap="butt" d="m234.66058 318.7716l25.13385 0l0 24.409454l-25.13385 0z" fill-rule="evenodd"/><path fill="#000000" fill-opacity="0.0" d="m210.99055 130.65326l23.874008 0" fill-rule="evenodd"/><path stroke="#999999" stroke-width="1.0" stroke-linejoin="round" stroke-linecap="butt" stroke-dasharray="1.0,3.0" d="m210.99055 130.65326l23.874008 0" fill-rule="evenodd"/><path fill="#000000" fill-opacity="0.0" d="m210.99055 154.59924l23.874008 0" fill-rule="evenodd"/><path stroke="#999999" stroke-width="1.0" stroke-linejoin="round" stroke-linecap="butt" stroke-dasharray="1.0,3.0" d="m210.99055 154.59924l23.874008 0" fill-rule="evenodd"/><path fill="#000000" fill-opacity="0.0" d="m210.99055 235.40489l23.874008 0" fill-rule="evenodd"/><path stroke="#000000" stroke-width="1.0" stroke-linejoin="round" stroke-linecap="butt" stroke-dasharray="1.0,3.0" d="m210.99055 235.40489l23.874008 0" fill-rule="evenodd"/><path fill="#000000" fill-opacity="0.0" d="m210.99055 211.14886l23.874008 0" fill-rule="evenodd"/><path stroke="#000000" stroke-width="1.0" stroke-linejoin="round" stroke-linecap="butt" stroke-dasharray="1.0,3.0" d="m210.99055 211.14886l23.874008 0" fill-rule="evenodd"/><path fill="#000000" fill-opacity="0.0" d="m210.99055 179.05849l23.874008 0" fill-rule="evenodd"/><path stroke="#999999" stroke-width="1.0" stroke-linejoin="round" stroke-linecap="butt" stroke-dasharray="1.0,3.0" d="m210.99055 179.05849l23.874008 0" fill-rule="evenodd"/><path fill="#000000" fill-opacity="0.0" d="m210.99055 318.6179l23.874008 0" fill-rule="evenodd"/><path stroke="#999999" stroke-width="1.0" stroke-linejoin="round" stroke-linecap="butt" stroke-dasharray="1.0,3.0" d="m210.99055 318.6179l23.874008 0" fill-rule="evenodd"/><path fill="#d9d9d9" d="m159.28323 265.02927l25.133865 0l0 24.409454l-25.133865 0z" fill-rule="evenodd"/><path stroke="#b7b7b7" stroke-width="1.0" stroke-linejoin="round" stroke-linecap="butt" d="m159.28323 265.02927l25.133865 0l0 24.409454l-25.133865 0z" fill-rule="evenodd"/><path fill="#d9d9d9" d="m184.40903 265.02927l25.13385 0l0 24.409454l-25.13385 0z" fill-rule="evenodd"/><path stroke="#b7b7b7" stroke-width="1.0" stroke-linejoin="round" stroke-linecap="butt" d="m184.40903 265.02927l25.13385 0l0 24.409454l-25.13385 0z" fill-rule="evenodd"/><path fill="#d9d9d9" d="m234.66058 265.02927l25.13385 0l0 24.409454l-25.13385 0z" fill-rule="evenodd"/><path stroke="#b7b7b7" stroke-width="1.0" stroke-linejoin="round" stroke-linecap="butt" d="m234.66058 265.02927l25.13385 0l0 24.409454l-25.13385 0z" fill-rule="evenodd"/><path fill="#000000" fill-opacity="0.0" d="m210.99055 264.87555l23.874008 0" fill-rule="evenodd"/><path stroke="#999999" stroke-width="1.0" stroke-linejoin="round" stroke-linecap="butt" stroke-dasharray="1.0,3.0" d="m210.99055 264.87555l23.874008 0" fill-rule="evenodd"/><path fill="#000000" fill-opacity="0.0" d="m210.99055 289.44684l23.874008 0" fill-rule="evenodd"/><path stroke="#999999" stroke-width="1.0" stroke-linejoin="round" stroke-linecap="butt" stroke-dasharray="1.0,3.0" d="m210.99055 289.44684l23.874008 0" fill-rule="evenodd"/><path fill="#000000" fill-opacity="0.0" d="m210.99055 343.18915l23.874008 0" fill-rule="evenodd"/><path stroke="#999999" stroke-width="1.0" stroke-linejoin="round" stroke-linecap="butt" stroke-dasharray="1.0,3.0" d="m210.99055 343.18915l23.874008 0" fill-rule="evenodd"/><path fill="#000000" fill-opacity="0.0" d="m210.99055 106.82583l23.874008 0" fill-rule="evenodd"/><path stroke="#999999" stroke-width="1.0" stroke-linejoin="round" stroke-linecap="butt" stroke-dasharray="1.0,3.0" d="m210.99055 106.82583l23.874008 0" fill-rule="evenodd"/><path fill="#000000" fill-opacity="0.0" d="m259.79443 223.33795l42.992126 0.5669403" fill-rule="evenodd"/><path stroke="#000000" stroke-width="1.0" stroke-linejoin="round" stroke-linecap="butt" d="m259.79443 223.33795l36.992645 0.48780823" fill-rule="evenodd"/><path fill="#000000" stroke="#000000" stroke-width="1.0" stroke-linecap="butt" d="m296.7653 225.47736l4.5595093 -1.5917511l-4.51593 -1.7114258z" fill-rule="evenodd"/><path fill="#000000" fill-opacity="0.0" d="m116.30239 277.44257l42.992134 -0.56692505" fill-rule="evenodd"/><path stroke="#000000" stroke-width="2.0" stroke-linejoin="round" stroke-linecap="butt" d="m116.30239 277.4426l30.993172 -0.40872192" fill-rule="evenodd"/><path fill="#000000" stroke="#000000" stroke-width="2.0" stroke-linecap="butt" d="m147.33913 280.33707l9.031845 -3.4228516l-9.118973 -3.1835022z" fill-rule="evenodd"/><path fill="#000000" fill-opacity="0.0" d="m116.30239 330.96997l42.992134 -0.56692505" fill-rule="evenodd"/><path stroke="#000000" stroke-width="2.0" stroke-linejoin="round" stroke-linecap="butt" d="m116.30239 330.96997l30.993172 -0.40872192" fill-rule="evenodd"/><path fill="#000000" stroke="#000000" stroke-width="2.0" stroke-linecap="butt" d="m147.33913 333.86444l9.031845 -3.4228516l-9.118973 -3.1835022z" fill-rule="evenodd"/><path fill="#000000" fill-opacity="0.0" d="m116.30239 169.8042l42.992134 -0.56692505" fill-rule="evenodd"/><path stroke="#000000" stroke-width="2.0" stroke-linejoin="round" stroke-linecap="butt" d="m116.30239 169.8042l30.993172 -0.4086914" fill-rule="evenodd"/><path fill="#000000" stroke="#000000" stroke-width="2.0" stroke-linecap="butt" d="m147.33913 172.69868l9.031845 -3.4228516l-9.118973 -3.1835022z" fill-rule="evenodd"/><path fill="#000000" fill-opacity="0.0" d="m116.30239 115.77138l42.992134 -0.5669327" fill-rule="evenodd"/><path stroke="#000000" stroke-width="2.0" stroke-linejoin="round" stroke-linecap="butt" d="m116.30239 115.77138l30.993172 -0.40869904" fill-rule="evenodd"/><path fill="#000000" stroke="#000000" stroke-width="2.0" stroke-linecap="butt" d="m147.33913 118.665855l9.031845 -3.4228592l-9.118973 -3.1834946z" fill-rule="evenodd"/><path fill="#000000" fill-opacity="0.0" d="m259.79443 118.195526c10.749329 0 16.124634 26.433075 21.498657 52.86615c5.3740234 26.43306 10.746735 52.866135 21.49347 52.866135" fill-rule="evenodd"/><path stroke="#000000" stroke-width="1.0" stroke-linejoin="round" stroke-linecap="butt" d="m259.79443 118.195526c10.749329 0 16.124634 26.433075 21.498657 52.86615c5.3740234 26.43306 10.746735 52.866135 21.49347 52.866135" fill-rule="evenodd"/><path fill="#000000" fill-opacity="0.0" d="m259.79443 166.79616c10.749329 0 16.124634 14.283463 21.498657 28.566925c5.3740234 14.283463 10.746735 28.566925 21.49347 28.566925" fill-rule="evenodd"/><path stroke="#000000" stroke-width="1.0" stroke-linejoin="round" stroke-linecap="butt" d="m259.79443 166.79616c10.749329 0 16.124634 14.283463 21.498657 28.566925c5.3740234 14.283463 10.746735 28.566925 21.49347 28.566925" fill-rule="evenodd"/><path fill="#000000" fill-opacity="0.0" d="m259.79443 277.234c10.749329 0 16.124634 -13.330719 21.498657 -26.661423c5.3740234 -13.330704 10.746735 -26.661423 21.49347 -26.661423" fill-rule="evenodd"/><path stroke="#000000" stroke-width="1.0" stroke-linejoin="round" stroke-linecap="butt" d="m259.79443 277.234c10.749329 0 16.124634 -13.330719 21.498657 -26.661423c5.3740234 -13.330704 10.746735 -26.661423 21.49347 -26.661423" fill-rule="evenodd"/><path fill="#000000" fill-opacity="0.0" d="m259.79443 330.97632c10.749329 0 16.124634 -26.763763 21.498657 -53.527557c5.3740234 -26.763763 10.746735 -53.527542 21.49347 -53.527542" fill-rule="evenodd"/><path stroke="#000000" stroke-width="1.0" stroke-linejoin="round" stroke-linecap="butt" d="m259.79443 330.97632c10.749329 0 16.124634 -26.763763 21.498657 -53.527557c5.3740234 -26.763763 10.746735 -53.527542 21.49347 -53.527542" fill-rule="evenodd"/><path fill="#000000" fill-opacity="0.0" d="m426.36313 223.91655c11.8897705 0 17.834656 -26.377945 23.77951 -52.755905c5.9448853 -26.377945 11.8897705 -52.755905 23.779541 -52.755905" fill-rule="evenodd"/><path stroke="#000000" stroke-width="1.0" stroke-linejoin="round" stroke-linecap="butt" d="m426.36313 223.91655c11.8897705 0 17.834656 -26.377945 23.77951 -52.755905c5.9448853 -26.377945 11.8897705 -52.755905 23.779541 -52.755905" fill-rule="evenodd"/><path fill="#000000" fill-opacity="0.0" d="m426.36313 223.91655c11.8897705 0 17.834656 -14.228348 23.77951 -28.456696c5.9448853 -14.228348 11.8897705 -28.456696 23.779541 -28.456696" fill-rule="evenodd"/><path stroke="#000000" stroke-width="1.0" stroke-linejoin="round" stroke-linecap="butt" d="m426.36313 223.91655c11.8897705 0 17.834656 -14.228348 23.77951 -28.456696c5.9448853 -14.228348 11.8897705 -28.456696 23.779541 -28.456696" fill-rule="evenodd"/><path fill="#000000" fill-opacity="0.0" d="m426.36313 223.91655c11.8897705 0 17.834656 -0.09448242 23.77951 -0.1889801c5.9448853 -0.09448242 11.8897705 -0.18896484 23.779541 -0.18896484" fill-rule="evenodd"/><path stroke="#000000" stroke-width="1.0" stroke-linejoin="round" stroke-linecap="butt" d="m426.36313 223.91655c11.8897705 0 17.834656 -0.09448242 23.77951 -0.1889801c5.9448853 -0.09448242 11.8897705 -0.18896484 23.779541 -0.18896484" fill-rule="evenodd"/><path fill="#000000" fill-opacity="0.0" d="m426.36313 223.91655c11.8897705 0 17.834656 13.37796 23.77951 26.755905c5.9448853 13.37796 11.8897705 26.75592 23.779541 26.75592" fill-rule="evenodd"/><path stroke="#000000" stroke-width="1.0" stroke-linejoin="round" stroke-linecap="butt" d="m426.36313 223.91655c11.8897705 0 17.834656 13.37796 23.77951 26.755905c5.9448853 13.37796 11.8897705 26.75592 23.779541 26.75592" fill-rule="evenodd"/><path fill="#000000" fill-opacity="0.0" d="m426.36313 223.91655c11.8897705 0 17.834656 26.81102 23.77951 53.622055c5.9448853 26.811005 11.8897705 53.62204 23.779541 53.62204" fill-rule="evenodd"/><path stroke="#000000" stroke-width="1.0" stroke-linejoin="round" stroke-linecap="butt" d="m426.36313 223.91655c11.8897705 0 17.834656 26.81102 23.77951 53.622055c5.9448853 26.811005 11.8897705 53.62204 23.779541 53.62204" fill-rule="evenodd"/><path fill="#000000" fill-opacity="0.0" d="m203.41733 99.71916l12.787399 0l0 15.496063l-12.787399 0z" fill-rule="evenodd"/><path fill="#000000" fill-opacity="0.0" d="m517.78345 99.07612l12.787415 0l0 15.496063l-12.787415 0z" fill-rule="evenodd"/><path fill="#000000" fill-opacity="0.0" d="m780.7729 90.014435l116.15747 0l0 266.64566l-116.15747 0z" fill-rule="evenodd"/><path fill="#000000" d="m827.1884 114.49319l0 1.34375q0 1.71875 0.625 2.59375q0.640625 0.875 2.015625 0.875q1.359375 0 2.921875 -0.703125l0.578125 1.5625q-1.859375 0.828125 -3.609375 0.828125q-2.171875 0 -3.3125 -1.375q-1.125 -1.375 -1.125 -3.78125l0 -1.34375q0 -2.390625 1.125 -3.765625q1.140625 -1.390625 3.3125 -1.390625q0.8125 0 1.6875 0.21875q0.875 0.203125 1.75 0.59375l-0.5625 1.578125q-0.75 -0.3125 -1.4375 -0.484375q-0.6875 -0.1875 -1.328125 -0.1875q-1.375 0 -2.015625 0.875q-0.625 0.875 -0.625 2.5625zm17.047607 6.390625q-1.03125 0 -1.65625 -0.46875q-0.625 -0.484375 -0.875 -1.1875q-1.109375 0.984375 -2.015625 1.375q-0.90625 0.390625 -1.8125 0.390625q-1.46875 0 -2.171875 -0.9375q-0.703125 -0.953125 -0.703125 -2.34375q0 -0.921875 0.328125 -1.640625q0.34375 -0.734375 1.15625 -1.15625q0.828125 -0.421875 2.203125 -0.421875q0.609375 0 1.328125 0.09375q0.734375 0.078125 1.484375 0.1875l0 -1.515625q0 -1.28125 -0.5625 -1.734375q-0.546875 -0.46875 -1.609375 -0.46875q-1.453125 0 -3.25 0.796875l-0.578125 -1.546875q1.03125 -0.46875 1.984375 -0.71875q0.953125 -0.25 1.9375 -0.25q1.578125 0 2.40625 0.515625q0.84375 0.515625 1.15625 1.390625q0.328125 0.859375 0.328125 1.875l0 4.84375q0 0.53125 0.203125 0.890625q0.203125 0.34375 0.8125 0.34375l0.25 0l0 1.6875l-0.34375 0zm-7.40625 -3.1875q0 0.765625 0.359375 1.25q0.375 0.46875 1.046875 0.46875q0.59375 0 1.359375 -0.34375q0.78125 -0.359375 1.90625 -1.421875l0 -1.421875q-1.546875 -0.25 -2.71875 -0.25q-1.046875 0 -1.5 0.4375q-0.453125 0.421875 -0.453125 1.28125zm16.544495 2.671875q-1.265625 0.625 -2.703125 0.625q-1.21875 0 -1.90625 -0.484375q-0.6875 -0.5 -0.984375 -1.34375q-0.28125 -0.84375 -0.28125 -1.859375l0 -6.109375l-1.9375 0l0 -1.640625l1.9375 0l0 -3.125l1.859375 0l0 3.125l3.671875 0l0 1.640625l-3.671875 0l0 6.046875q0 1.171875 0.390625 1.625q0.40625 0.4375 1.25 0.4375q0.40625 0 0.84375 -0.09375q0.4375 -0.109375 0.96875 -0.359375l0.5625 1.515625z" fill-rule="nonzero"/><path fill="#000000" d="m822.56616 165.4713q-0.625 0 -1.421875 0.328125q-0.796875 0.328125 -2.0 1.28125l0 8.09375l-1.84375 0l0 -11.21875l1.765625 0l0 1.5625q1.203125 -0.984375 2.125 -1.375q0.921875 -0.40625 1.828125 -0.40625q1.078125 0 1.765625 0.484375q0.703125 0.484375 1.046875 1.390625q1.25 -1.0625 2.234375 -1.46875q0.984375 -0.40625 1.9375 -0.40625q1.5 0 2.28125 0.984375q0.796875 0.984375 0.796875 2.796875l0 7.65625l-1.859375 0l0 -7.390625q0 -2.3125 -1.671875 -2.3125q-0.640625 0 -1.453125 0.328125q-0.796875 0.328125 -1.984375 1.28125q0.015625 0.09375 0.015625 0.21875q0 0.109375 0 0.21875l0 7.65625l-1.859375 0l0 -7.390625q0 -2.3125 -1.703125 -2.3125zm16.391357 -4.25l-2.09375 0l0 -2.09375l2.09375 0l0 2.09375zm-0.125 13.953125l-1.84375 0l0 -11.21875l1.84375 0l0 11.21875zm5.33667 -6.28125l0 1.34375q0 1.71875 0.62506104 2.59375q0.640625 0.875 2.015625 0.875q1.359375 0 2.921875 -0.703125l0.578125 1.5625q-1.859375 0.828125 -3.609375 0.828125q-2.171936 0 -3.312561 -1.375q-1.125 -1.375 -1.125 -3.78125l0 -1.34375q0 -2.390625 1.125 -3.765625q1.140625 -1.390625 3.312561 -1.390625q0.8125 0 1.6875 0.21875q0.875 0.203125 1.75 0.59375l-0.5625 1.578125q-0.75 -0.3125 -1.4375 -0.484375q-0.6875 -0.1875 -1.328125 -0.1875q-1.375 0 -2.015625 0.875q-0.62506104 0.875 -0.62506104 2.5625zm16.93982 5.625q-1.015625 0.5 -2.046875 0.6875q-1.015625 0.1875 -1.875 0.1875q-2.421875 0 -3.609375 -1.375q-1.1875 -1.375 -1.1875 -3.78125l0 -1.359375q0 -2.328125 1.1875 -3.734375q1.1875 -1.40625 3.359375 -1.40625q1.15625 0 2.125 0.46875q0.96875 0.453125 1.53125 1.40625q0.578125 0.9375 0.578125 2.40625q0 0.953125 -0.265625 2.171875l-6.6875 0l0 0.046875q0 1.71875 0.71875 2.609375q0.71875 0.875 2.296875 0.875q0.734375 0 1.59375 -0.171875q0.875 -0.1875 1.71875 -0.578125l0.5625 1.546875zm-4.171875 -9.15625q-1.3125 0 -1.984375 0.859375q-0.65625 0.84375 -0.734375 2.390625l5.078125 0q0.0625 -0.421875 0.0625 -0.78125q0 -1.265625 -0.71875 -1.859375q-0.703125 -0.609375 -1.703125 -0.609375z" fill-rule="nonzero"/><path fill="#d9ead3" d="m818.3704 207.81442l40.962402 0l0 27.199997l-40.962402 0l0 -27.199997z" fill-rule="nonzero"/><path fill="#000000" fill-opacity="0.0" d="m818.3704 207.46196l40.962463 0l0 27.16478l-40.962463 0l0 -27.16478z" fill-rule="nonzero"/><path fill="#000000" d="m828.4954 228.91817q-1.015625 0.5 -2.046875 0.6875q-1.015625 0.1875 -1.875 0.1875q-2.421875 0 -3.609375 -1.375q-1.1875 -1.375 -1.1875 -3.78125l0 -1.359375q0 -2.328125 1.1875 -3.734375q1.1875 -1.40625 3.359375 -1.40625q1.15625 0 2.125 0.46875q0.96875 0.453125 1.53125 1.40625q0.578125 0.9375 0.578125 2.40625q0 0.953125 -0.265625 2.171875l-6.6875 0l0 0.046875q0 1.71875 0.71875 2.609375q0.71875 0.875 2.296875 0.875q0.734375 0 1.59375 -0.171875q0.875 -0.1875 1.71875 -0.578125l0.5625 1.546875zm-4.171875 -9.15625q-1.3125 0 -1.984375 0.859375q-0.65625 0.84375 -0.734375 2.390625l5.078125 0q0.0625 -0.421875 0.0625 -0.78125q0 -1.265625 -0.71875 -1.859375q-0.703125 -0.609375 -1.703125 -0.609375zm15.653137 9.921875q-1.03125 0 -1.65625 -0.46875q-0.625 -0.484375 -0.875 -1.1875q-1.109375 0.984375 -2.015625 1.375q-0.90625 0.390625 -1.8125 0.390625q-1.46875 0 -2.171875 -0.9375q-0.703125 -0.953125 -0.703125 -2.34375q0 -0.921875 0.328125 -1.640625q0.34375 -0.734375 1.15625 -1.15625q0.828125 -0.421875 2.203125 -0.421875q0.609375 0 1.328125 0.09375q0.734375 0.078125 1.484375 0.1875l0 -1.515625q0 -1.28125 -0.5625 -1.734375q-0.546875 -0.46875 -1.609375 -0.46875q-1.453125 0 -3.25 0.796875l-0.578125 -1.546875q1.03125 -0.46875 1.984375 -0.71875q0.953125 -0.25 1.9375 -0.25q1.578125 0 2.40625 0.515625q0.84375 0.515625 1.15625 1.390625q0.328125 0.859375 0.328125 1.875l0 4.84375q0 0.53125 0.203125 0.890625q0.203125 0.34375 0.8125 0.34375l0.25 0l0 1.6875l-0.34375 0zm-7.40625 -3.1875q0 0.765625 0.359375 1.25q0.375 0.46875 1.046875 0.46875q0.59375 0 1.359375 -0.34375q0.78125 -0.359375 1.90625 -1.421875l0 -1.421875q-1.546875 -0.25 -2.71875 -0.25q-1.046875 0 -1.5 0.4375q-0.453125 0.421875 -0.453125 1.28125zm16.544495 2.671875q-1.265625 0.625 -2.703125 0.625q-1.21875 0 -1.90625 -0.484375q-0.6875 -0.5 -0.984375 -1.34375q-0.28125 -0.84375 -0.28125 -1.859375l0 -6.109375l-1.9375 0l0 -1.640625l1.9375 0l0 -3.125l1.859375 0l0 3.125l3.671875 0l0 1.640625l-3.671875 0l0 6.046875q0 1.171875 0.390625 1.625q0.40625 0.4375 1.25 0.4375q0.40625 0 0.84375 -0.09375q0.4375 -0.109375 0.96875 -0.359375l0.5625 1.515625zm5.1875 -1.015625q2.265625 0 2.265625 -1.546875q0 -0.65625 -0.40625 -1.03125q-0.40625 -0.390625 -1.5 -0.671875l-1.25 -0.3125q-1.375 -0.34375 -2.0625 -1.1875q-0.671875 -0.84375 -0.671875 -2.03125q0 -0.859375 0.375 -1.59375q0.390625 -0.734375 1.234375 -1.1875q0.84375 -0.453125 2.171875 -0.453125q0.859375 0 1.75 0.1875q0.90625 0.1875 1.828125 0.640625l-0.578125 1.5625q-1.65625 -0.734375 -3.0 -0.734375q-1.96875 0 -1.96875 1.46875q0 0.5625 0.359375 0.96875q0.359375 0.40625 1.359375 0.65625l1.25 0.328125q1.5 0.359375 2.203125 1.171875q0.703125 0.8125 0.703125 2.109375q0 0.921875 -0.40625 1.6875q-0.390625 0.75 -1.265625 1.1875q-0.875 0.421875 -2.34375 0.421875q-0.96875 0 -1.9375 -0.203125q-0.96875 -0.203125 -1.984375 -0.65625l0.5 -1.53125q0.96875 0.375 1.765625 0.5625q0.796875 0.1875 1.609375 0.1875z" fill-rule="nonzero"/><path fill="#000000" fill-opacity="0.0" d="m859.3329 207.46196l0 0l0 27.16478l0 0l0 -27.16478z" fill-rule="nonzero"/><path fill="#000000" d="m830.5255 283.56818q-1.265625 0.625 -2.703125 0.625q-1.21875 0 -1.90625 -0.484375q-0.6875 -0.5 -0.984375 -1.34375q-0.28125 -0.84375 -0.28125 -1.859375l0 -6.109375l-1.9375 0l0 -1.640625l1.9375 0l0 -3.125l1.859375 0l0 3.125l3.671875 0l0 1.640625l-3.671875 0l0 6.046875q0 1.171875 0.390625 1.625q0.40625 0.4375 1.25 0.4375q0.40625 0 0.84375 -0.09375q0.4375 -0.109375 0.96875 -0.359375l0.5625 1.515625zm7.84375 -9.296875q-0.640625 0 -1.5 0.328125q-0.84375 0.3125 -2.046875 1.28125l0 8.09375l-1.84375 0l0 -16.765625l1.84375 0l0 7.046875q1.1875 -1.0 2.140625 -1.359375q0.953125 -0.359375 1.859375 -0.359375q1.5625 0 2.390625 0.984375q0.828125 0.984375 0.828125 2.796875l0 7.65625l-1.859375 0l0 -7.390625q0 -2.3125 -1.8125 -2.3125zm15.6710205 9.046875q-1.015625 0.5 -2.046875 0.6875q-1.015625 0.1875 -1.875 0.1875q-2.421875 0 -3.609375 -1.375q-1.1875 -1.375 -1.1875 -3.78125l0 -1.359375q0 -2.328125 1.1875 -3.734375q1.1875 -1.40625 3.359375 -1.40625q1.15625 0 2.125 0.46875q0.96875 0.453125 1.53125 1.40625q0.578125 0.9375 0.578125 2.40625q0 0.953125 -0.265625 2.171875l-6.6875 0l0 0.046875q0 1.71875 0.71875 2.609375q0.71875 0.875 2.296875 0.875q0.734375 0 1.59375 -0.171875q0.875 -0.1875 1.71875 -0.578125l0.5625 1.546875zm-4.171875 -9.15625q-1.3125 0 -1.984375 0.859375q-0.65625 0.84375 -0.734375 2.390625l5.078125 0q0.0625 -0.421875 0.0625 -0.78125q0 -1.265625 -0.71875 -1.859375q-0.703125 -0.609375 -1.703125 -0.609375z" fill-rule="nonzero"/><path fill="#000000" d="m832.4915 328.7963l-3.671875 0l0 9.578125l-1.859375 0l0 -9.578125l-1.953125 0l0 -1.640625l1.953125 0l0 -1.859375q0 -1.03125 0.34375 -1.921875q0.359375 -0.90625 1.140625 -1.4375q0.796875 -0.546875 2.109375 -0.546875q0.65625 0 1.390625 0.140625q0.75 0.140625 1.375 0.4375l-0.515625 1.5625q-1.15625 -0.453125 -2.015625 -0.453125q-0.953125 0 -1.46875 0.53125q-0.5 0.515625 -0.5 1.671875l0 1.875l3.671875 0l0 1.640625zm10.9140625 3.28125l0 1.359375q0 2.40625 -1.234375 3.78125q-1.234375 1.375 -3.53125 1.375q-2.265625 0 -3.515625 -1.375q-1.234375 -1.375 -1.234375 -3.78125l0 -1.359375q0 -2.359375 1.234375 -3.75q1.234375 -1.390625 3.515625 -1.390625q2.296875 0 3.53125 1.390625q1.234375 1.390625 1.234375 3.75zm-1.921875 0q0 -1.609375 -0.734375 -2.515625q-0.71875 -0.921875 -2.109375 -0.921875q-1.359375 0 -2.09375 0.921875q-0.734375 0.90625 -0.734375 2.515625l0 1.359375q0 1.671875 0.734375 2.578125q0.734375 0.90625 2.09375 0.90625q1.390625 0 2.109375 -0.90625q0.734375 -0.90625 0.734375 -2.578125l0 -1.359375zm11.194519 -3.28125q-1.03125 0 -2.0 0.359375q-0.953125 0.359375 -2.046875 1.375l0 7.84375l-1.84375 0l0 -11.21875l1.765625 0l0 1.8125q1.15625 -1.125 2.109375 -1.578125q0.96875 -0.453125 2.015625 -0.453125l0 1.859375z" fill-rule="nonzero"/><path fill="#000000" fill-opacity="0.0" d="m787.6391 116.60236l-33.95276 -0.5669327" fill-rule="evenodd"/><path stroke="#000000" stroke-width="2.0" stroke-linejoin="round" stroke-linecap="butt" d="m787.6391 116.60236l-21.954407 -0.36658478" fill-rule="evenodd"/><path fill="#000000" stroke="#000000" stroke-width="2.0" stroke-linecap="butt" d="m765.7398 112.93277l-9.130066 3.151474l9.019775 3.4545364z" fill-rule="evenodd"/><path fill="#d9d9d9" d="m640.4934 106.18881l25.13385 0l0 24.409454l-25.13385 0z" fill-rule="evenodd"/><path stroke="#b7b7b7" stroke-width="1.0" stroke-linejoin="round" stroke-linecap="butt" d="m640.4934 106.18881l25.13385 0l0 24.409454l-25.13385 0z" fill-rule="evenodd"/><path fill="#d9d9d9" d="m665.6192 106.18881l25.13385 0l0 24.409454l-25.13385 0z" fill-rule="evenodd"/><path stroke="#b7b7b7" stroke-width="1.0" stroke-linejoin="round" stroke-linecap="butt" d="m665.6192 106.18881l25.13385 0l0 24.409454l-25.13385 0z" fill-rule="evenodd"/><path fill="#d9d9d9" d="m715.8707 106.18881l25.133911 0l0 24.409454l-25.133911 0z" fill-rule="evenodd"/><path stroke="#b7b7b7" stroke-width="1.0" stroke-linejoin="round" stroke-linecap="butt" d="m715.8707 106.18881l25.133911 0l0 24.409454l-25.133911 0z" fill-rule="evenodd"/><path fill="#d9d9d9" d="m640.4934 154.78944l25.13385 0l0 24.40944l-25.13385 0z" fill-rule="evenodd"/><path stroke="#b7b7b7" stroke-width="1.0" stroke-linejoin="round" stroke-linecap="butt" d="m640.4934 154.78944l25.13385 0l0 24.40944l-25.13385 0z" fill-rule="evenodd"/><path fill="#d9d9d9" d="m665.6192 154.78944l25.13385 0l0 24.40944l-25.13385 0z" fill-rule="evenodd"/><path stroke="#b7b7b7" stroke-width="1.0" stroke-linejoin="round" stroke-linecap="butt" d="m665.6192 154.78944l25.13385 0l0 24.40944l-25.13385 0z" fill-rule="evenodd"/><path fill="#d9d9d9" d="m715.8707 154.78944l25.133911 0l0 24.40944l-25.133911 0z" fill-rule="evenodd"/><path stroke="#b7b7b7" stroke-width="1.0" stroke-linejoin="round" stroke-linecap="butt" d="m715.8707 154.78944l25.133911 0l0 24.40944l-25.133911 0z" fill-rule="evenodd"/><path fill="#ffd966" d="m640.4934 211.33124l25.13385 0l0 24.409454l-25.13385 0z" fill-rule="evenodd"/><path stroke="#000000" stroke-width="1.0" stroke-linejoin="round" stroke-linecap="butt" d="m640.4934 211.33124l25.13385 0l0 24.409454l-25.13385 0z" fill-rule="evenodd"/><path fill="#ffd966" d="m665.6192 211.33124l25.13385 0l0 24.409454l-25.13385 0z" fill-rule="evenodd"/><path stroke="#000000" stroke-width="1.0" stroke-linejoin="round" stroke-linecap="butt" d="m665.6192 211.33124l25.13385 0l0 24.409454l-25.13385 0z" fill-rule="evenodd"/><path fill="#ffd966" d="m715.8707 211.33124l25.133911 0l0 24.409454l-25.133911 0z" fill-rule="evenodd"/><path stroke="#000000" stroke-width="1.0" stroke-linejoin="round" stroke-linecap="butt" d="m715.8707 211.33124l25.133911 0l0 24.409454l-25.133911 0z" fill-rule="evenodd"/><path fill="#d9d9d9" d="m640.4934 318.9696l25.13385 0l0 24.409454l-25.13385 0z" fill-rule="evenodd"/><path stroke="#b7b7b7" stroke-width="1.0" stroke-linejoin="round" stroke-linecap="butt" d="m640.4934 318.9696l25.13385 0l0 24.409454l-25.13385 0z" fill-rule="evenodd"/><path fill="#d9d9d9" d="m665.6192 318.9696l25.13385 0l0 24.409454l-25.13385 0z" fill-rule="evenodd"/><path stroke="#b7b7b7" stroke-width="1.0" stroke-linejoin="round" stroke-linecap="butt" d="m665.6192 318.9696l25.13385 0l0 24.409454l-25.13385 0z" fill-rule="evenodd"/><path fill="#d9d9d9" d="m715.8707 318.9696l25.133911 0l0 24.409454l-25.133911 0z" fill-rule="evenodd"/><path stroke="#b7b7b7" stroke-width="1.0" stroke-linejoin="round" stroke-linecap="butt" d="m715.8707 318.9696l25.133911 0l0 24.409454l-25.133911 0z" fill-rule="evenodd"/><path fill="#000000" fill-opacity="0.0" d="m692.20074 130.85127l23.874023 0" fill-rule="evenodd"/><path stroke="#999999" stroke-width="1.0" stroke-linejoin="round" stroke-linecap="butt" stroke-dasharray="1.0,3.0" d="m692.20074 130.85127l23.874023 0" fill-rule="evenodd"/><path fill="#000000" fill-opacity="0.0" d="m692.20074 154.79726l23.874023 0" fill-rule="evenodd"/><path stroke="#999999" stroke-width="1.0" stroke-linejoin="round" stroke-linecap="butt" stroke-dasharray="1.0,3.0" d="m692.20074 154.79726l23.874023 0" fill-rule="evenodd"/><path fill="#000000" fill-opacity="0.0" d="m692.20074 235.60289l23.874023 0" fill-rule="evenodd"/><path stroke="#000000" stroke-width="1.0" stroke-linejoin="round" stroke-linecap="butt" stroke-dasharray="1.0,3.0" d="m692.20074 235.60289l23.874023 0" fill-rule="evenodd"/><path fill="#000000" fill-opacity="0.0" d="m692.20074 211.34688l23.874023 0" fill-rule="evenodd"/><path stroke="#000000" stroke-width="1.0" stroke-linejoin="round" stroke-linecap="butt" stroke-dasharray="1.0,3.0" d="m692.20074 211.34688l23.874023 0" fill-rule="evenodd"/><path fill="#000000" fill-opacity="0.0" d="m692.20074 179.2565l23.874023 0" fill-rule="evenodd"/><path stroke="#999999" stroke-width="1.0" stroke-linejoin="round" stroke-linecap="butt" stroke-dasharray="1.0,3.0" d="m692.20074 179.2565l23.874023 0" fill-rule="evenodd"/><path fill="#000000" fill-opacity="0.0" d="m692.20074 318.8159l23.874023 0" fill-rule="evenodd"/><path stroke="#999999" stroke-width="1.0" stroke-linejoin="round" stroke-linecap="butt" stroke-dasharray="1.0,3.0" d="m692.20074 318.8159l23.874023 0" fill-rule="evenodd"/><path fill="#d9d9d9" d="m640.4934 265.2273l25.13385 0l0 24.409424l-25.13385 0z" fill-rule="evenodd"/><path stroke="#b7b7b7" stroke-width="1.0" stroke-linejoin="round" stroke-linecap="butt" d="m640.4934 265.2273l25.13385 0l0 24.409424l-25.13385 0z" fill-rule="evenodd"/><path fill="#d9d9d9" d="m665.6192 265.2273l25.13385 0l0 24.409424l-25.13385 0z" fill-rule="evenodd"/><path stroke="#b7b7b7" stroke-width="1.0" stroke-linejoin="round" stroke-linecap="butt" d="m665.6192 265.2273l25.13385 0l0 24.409424l-25.13385 0z" fill-rule="evenodd"/><path fill="#d9d9d9" d="m715.8707 265.2273l25.133911 0l0 24.409424l-25.133911 0z" fill-rule="evenodd"/><path stroke="#b7b7b7" stroke-width="1.0" stroke-linejoin="round" stroke-linecap="butt" d="m715.8707 265.2273l25.133911 0l0 24.409424l-25.133911 0z" fill-rule="evenodd"/><path fill="#000000" fill-opacity="0.0" d="m692.20074 265.07358l23.874023 0" fill-rule="evenodd"/><path stroke="#999999" stroke-width="1.0" stroke-linejoin="round" stroke-linecap="butt" stroke-dasharray="1.0,3.0" d="m692.20074 265.07358l23.874023 0" fill-rule="evenodd"/><path fill="#000000" fill-opacity="0.0" d="m692.20074 289.64484l23.874023 0" fill-rule="evenodd"/><path stroke="#999999" stroke-width="1.0" stroke-linejoin="round" stroke-linecap="butt" stroke-dasharray="1.0,3.0" d="m692.20074 289.64484l23.874023 0" fill-rule="evenodd"/><path fill="#000000" fill-opacity="0.0" d="m692.20074 343.38718l23.874023 0" fill-rule="evenodd"/><path stroke="#999999" stroke-width="1.0" stroke-linejoin="round" stroke-linecap="butt" stroke-dasharray="1.0,3.0" d="m692.20074 343.38718l23.874023 0" fill-rule="evenodd"/><path fill="#000000" fill-opacity="0.0" d="m692.20074 107.023834l23.874023 0" fill-rule="evenodd"/><path stroke="#999999" stroke-width="1.0" stroke-linejoin="round" stroke-linecap="butt" stroke-dasharray="1.0,3.0" d="m692.20074 107.023834l23.874023 0" fill-rule="evenodd"/><path fill="#000000" fill-opacity="0.0" d="m684.353 99.07612l12.787415 0l0 15.496063l-12.787415 0z" fill-rule="evenodd"/><path fill="#000000" fill-opacity="0.0" d="m787.6391 169.3819l-33.95276 -0.5669403" fill-rule="evenodd"/><path stroke="#000000" stroke-width="2.0" stroke-linejoin="round" stroke-linecap="butt" d="m787.6391 169.3819l-21.954407 -0.3665924" fill-rule="evenodd"/><path fill="#000000" stroke="#000000" stroke-width="2.0" stroke-linecap="butt" d="m765.7398 165.7123l-9.130066 3.151474l9.019775 3.454544z" fill-rule="evenodd"/><path fill="#000000" fill-opacity="0.0" d="m787.6391 225.1798l-33.95276 -0.5669403" fill-rule="evenodd"/><path stroke="#000000" stroke-width="2.0" stroke-linejoin="round" stroke-linecap="butt" d="m787.6391 225.1798l-21.954407 -0.3665924" fill-rule="evenodd"/><path fill="#000000" stroke="#000000" stroke-width="2.0" stroke-linecap="butt" d="m765.7398 221.5102l-9.130066 3.1514893l9.019775 3.4545288z" fill-rule="evenodd"/><path fill="#000000" fill-opacity="0.0" d="m787.6391 277.82285l-33.95276 -0.56692505" fill-rule="evenodd"/><path stroke="#000000" stroke-width="2.0" stroke-linejoin="round" stroke-linecap="butt" d="m787.6391 277.82285l-21.954407 -0.36660767" fill-rule="evenodd"/><path fill="#000000" stroke="#000000" stroke-width="2.0" stroke-linecap="butt" d="m765.7398 274.15326l-9.130066 3.1514587l9.019775 3.4545288z" fill-rule="evenodd"/><path fill="#000000" fill-opacity="0.0" d="m787.6391 333.75723l-33.95276 -0.56695557" fill-rule="evenodd"/><path stroke="#000000" stroke-width="2.0" stroke-linejoin="round" stroke-linecap="butt" d="m787.6391 333.75723l-21.954407 -0.36660767" fill-rule="evenodd"/><path fill="#000000" stroke="#000000" stroke-width="2.0" stroke-linecap="butt" d="m765.7398 330.08762l-9.130066 3.1514893l9.019775 3.4545288z" fill-rule="evenodd"/><path fill="#000000" fill-opacity="0.0" d="m574.43506 223.53596c16.514465 0 24.77301 13.472443 33.02893 26.944885c8.255859 13.472427 16.509155 26.94487 33.01831 26.94487" fill-rule="evenodd"/><path stroke="#ea9999" stroke-width="3.0" stroke-linejoin="round" stroke-linecap="butt" d="m574.43506 223.53596c16.514465 0 24.77301 13.472443 33.02893 26.944885c8.255859 13.472427 16.509155 26.94487 33.01831 26.94487" fill-rule="evenodd"/><path fill="#000000" fill-opacity="0.0" d="m574.43506 223.53596c16.514465 0 24.77301 26.913391 33.02893 53.826767c8.255859 26.913391 16.509155 53.826782 33.01831 53.826782" fill-rule="evenodd"/><path stroke="#ea9999" stroke-width="3.0" stroke-linejoin="round" stroke-linecap="butt" d="m574.43506 223.53596c16.514465 0 24.77301 26.913391 33.02893 53.826767c8.255859 26.913391 16.509155 53.826782 33.01831 53.826782" fill-rule="evenodd"/><path fill="#000000" fill-opacity="0.0" d="m574.43506 223.53596c16.514465 0 24.77301 -14.133865 33.02893 -28.267715c8.255859 -14.133865 16.509155 -28.267715 33.01831 -28.267715" fill-rule="evenodd"/><path stroke="#ea9999" stroke-width="3.0" stroke-linejoin="round" stroke-linecap="butt" d="m574.43506 223.53596c16.514465 0 24.77301 -14.133865 33.02893 -28.267715c8.255859 -14.133865 16.509155 -28.267715 33.01831 -28.267715" fill-rule="evenodd"/><path fill="#000000" fill-opacity="0.0" d="m574.43506 223.53596c16.514465 0 24.77301 -26.283463 33.02893 -52.566925c8.255859 -26.283463 16.509155 -52.566933 33.01831 -52.566933" fill-rule="evenodd"/><path stroke="#ea9999" stroke-width="3.0" stroke-linejoin="round" stroke-linecap="butt" d="m574.43506 223.53596c16.514465 0 24.77301 -26.283463 33.02893 -52.566925c8.255859 -26.283463 16.509155 -52.566933 33.01831 -52.566933" fill-rule="evenodd"/><path fill="#000000" fill-opacity="0.0" d="m574.43506 223.53596c16.514465 0 24.77301 0.01574707 33.02893 0.03149414c8.255859 0.01574707 16.509155 0.03149414 33.01831 0.03149414" fill-rule="evenodd"/><path stroke="#93c47d" stroke-width="3.0" stroke-linejoin="round" stroke-linecap="butt" d="m574.43506 223.53596c16.514465 0 24.77301 0.01574707 33.02893 0.03149414c8.255859 0.01574707 16.509155 0.03149414 33.01831 0.03149414" fill-rule="evenodd"/><path fill="#000000" fill-opacity="0.0" d="m209.81102 99.71916c0 -12.821526 78.59056 -25.5643 157.1811 -25.643044c78.590546 -0.07874298 157.18109 12.506561 157.18109 25.013123" fill-rule="evenodd"/><path stroke="#000000" stroke-width="2.0" stroke-linejoin="round" stroke-linecap="butt" stroke-dasharray="8.0,6.0" d="m209.81102 99.71916c0 -12.821526 78.59056 -25.5643 157.1811 -25.643044c78.590546 -0.07874298 157.18109 12.506561 157.18109 25.013123" fill-rule="evenodd"/><path fill="#000000" fill-opacity="0.0" d="m231.43425 10.465879l271.1181 0l0 46.866142l-271.1181 0z" fill-rule="evenodd"/><path fill="#000000" d="m244.32487 34.8665q-0.40625 2.265625 0.265625 3.53125q0.671875 1.25 2.40625 1.25q0.625 0 1.46875 -0.125q0.84375 -0.125 1.9375 -0.546875l0.46875 1.703125q-1.15625 0.4375 -2.203125 0.59375q-1.046875 0.171875 -1.875 0.171875q-1.734375 0 -2.875 -0.8125q-1.125 -0.8125 -1.546875 -2.296875q-0.421875 -1.484375 -0.078125 -3.46875l0.5 -2.953123q0.546875 -3.109375 2.03125 -4.703125q1.484375 -1.609375 4.21875 -1.609375q0.921875 0 1.890625 0.234375q0.96875 0.21875 1.9375 0.703125l-0.703125 1.75q-0.921875 -0.453125 -1.6875 -0.65625q-0.765625 -0.203125 -1.53125 -0.203125q-1.71875 0 -2.734375 1.171875q-1.0 1.15625 -1.390625 3.3125l-0.5 2.953123zm18.3293 0.515625l-0.171875 1.125q-0.359375 2.40625 -1.71875 3.671875q-1.34375 1.265625 -3.5 1.265625q-1.578125 0 -2.609375 -0.71875q-1.03125 -0.71875 -1.4375 -1.984375q-0.40625 -1.28125 -0.15625 -2.890625l0.171875 -1.15625q0.390625 -2.296875 1.703125 -3.593748q1.328125 -1.3125 3.515625 -1.3125q1.609375 0 2.625 0.75q1.015625 0.734375 1.421875 1.9999981q0.40625 1.25 0.15625 2.84375zm-1.921875 -0.046875q0.265625 -1.703125 -0.328125 -2.765625q-0.578125 -1.0781231 -1.984375 -1.0781231q-1.3125 0 -2.171875 0.8437481q-0.84375 0.828125 -1.09375 2.359375l-0.171875 1.203125q-0.28125 1.75 0.3125 2.8125q0.609375 1.0625 2.0 1.0625q1.3125 0 2.15625 -0.828125q0.859375 -0.828125 1.09375 -2.4375l0.1875 -1.171875zm11.458588 -3.812498q-0.421875 0 -1.0 0.203125q-0.5625 0.1875 -1.3125 0.7187481q-0.734375 0.53125 -1.71875 1.578125l-1.28125 7.203125l-1.859375 0l1.984375 -11.218748l1.75 0l-0.34375 2.062498q1.34375 -1.4062481 2.390625 -1.8437481q1.0625 -0.4375 1.890625 -0.4375q1.546875 0 2.28125 1.125q0.734375 1.1093731 0.421875 2.906248l-1.3125 7.40625l-1.859375 0l1.265625 -7.25q0.453125 -2.453123 -1.296875 -2.453123zm12.030426 9.312498q-1.4375 0.609375 -2.734375 0.609375q-1.15625 0 -1.796875 -0.5q-0.625 -0.515625 -0.8125 -1.328125q-0.171875 -0.8125 -0.015625 -1.75l1.078125 -6.218748l-1.9375 0l0.265625 -1.640625l1.96875 0l0.546875 -3.125l1.859375 0l-0.546875 3.125l3.671875 0l-0.296875 1.640625l-3.671875 0l-1.109375 6.218748q-0.171875 1.046875 0.15625 1.46875q0.34375 0.421875 1.0 0.421875q0.359375 0 0.875 -0.09375q0.515625 -0.109375 1.09375 -0.390625l0.40625 1.5625zm9.982788 -9.171873q-0.53125 0 -1.265625 0.171875q-0.71875 0.1718731 -1.546875 0.7031231q-0.8125 0.515625 -1.6875 1.578125l-1.234375 7.109375l-1.859375 0l1.984375 -11.218748l1.75 0l-0.359375 2.109373q1.28125 -1.4218731 2.453125 -1.8749981q1.171875 -0.453125 2.078125 -0.453125l-0.3125 1.875zm10.049194 9.671873q-1.109375 0 -1.640625 -0.546875q-0.53125 -0.5625 -0.578125 -1.390625q-1.0625 1.15625 -2.046875 1.609375q-0.96875 0.4375 -1.828125 0.4375q-1.109375 0 -1.828125 -0.6875q-0.703125 -0.703125 -0.984375 -1.921875q-0.265625 -1.234375 -0.046875 -2.78125l0.171875 -1.109375q0.359375 -2.421875 1.6875 -3.781248q1.34375 -1.375 3.515625 -1.375q1.140625 0 2.25 0.375q1.125 0.375 2.171875 1.046875l-1.21875 6.953123q-0.125 0.6875 0.03125 1.09375q0.171875 0.390625 0.734375 0.390625l0.3125 0l-0.3125 1.6875l-0.390625 0zm-7.015625 -5.28125q-0.25 1.796875 0.125 2.765625q0.390625 0.953125 1.296875 0.953125q0.6875 0 1.59375 -0.578125q0.90625 -0.59375 1.9375 -2.0625l0.890625 -5.03125q-1.234375 -0.6093731 -2.296875 -0.6093731q-1.46875 0 -2.328125 0.9687481q-0.84375 0.953125 -1.0625 2.484375l-0.15625 1.109375zm13.141388 3.75q1.3125 0 1.890625 -0.453125q0.578125 -0.453125 0.578125 -1.1875q0 -0.578125 -0.375 -0.9375q-0.359375 -0.375 -1.21875 -0.6875l-1.078125 -0.4375q-1.15625 -0.421875 -1.734375 -1.140625q-0.578125 -0.734375 -0.578125 -1.84375q0 -0.90625 0.390625 -1.6562481q0.390625 -0.75 1.28125 -1.203125q0.890625 -0.46875 2.3125 -0.46875q1.75 0 3.53125 0.8125l-0.59375 1.5781231q-0.8125 -0.3749981 -1.546875 -0.5468731q-0.71875 -0.171875 -1.4375 -0.171875q-1.109375 0 -1.59375 0.40625q-0.484375 0.4062481 -0.484375 1.1093731q0 0.5 0.296875 0.875q0.3125 0.359375 1.0625 0.640625l1.109375 0.40625q1.234375 0.453125 1.875 1.1875q0.640625 0.71875 0.640625 1.875q0 0.890625 -0.4375 1.703125q-0.4375 0.796875 -1.40625 1.296875q-0.953125 0.484375 -2.53125 0.484375q-1.890625 0 -3.78125 -0.828125l0.578125 -1.5625q0.890625 0.375 1.671875 0.5625q0.796875 0.1875 1.578125 0.1875zm13.06012 1.03125q-1.4375 0.609375 -2.734375 0.609375q-1.15625 0 -1.796875 -0.5q-0.625 -0.515625 -0.8125 -1.328125q-0.171875 -0.8125 -0.015625 -1.75l1.078125 -6.218748l-1.9375 0l0.265625 -1.640625l1.96875 0l0.546875 -3.125l1.859375 0l-0.546875 3.125l3.671875 0l-0.296875 1.640625l-3.671875 0l-1.109375 6.218748q-0.171875 1.046875 0.15625 1.46875q0.34375 0.421875 1.0 0.421875q0.359375 0 0.875 -0.09375q0.515625 -0.109375 1.09375 -0.390625l0.40625 1.5625zm6.842163 -13.562498l-2.078125 0l0.34375 -2.09375l2.078125 0l-0.34375 2.09375zm-2.59375 13.953123l-1.859375 0l1.984375 -11.218748l1.859375 0l-1.984375 11.218748zm14.203125 -11.218748l-5.9375 11.218748l-1.71875 0l-2.046875 -11.218748l1.8125 0l0.9375 5.468748l0.515625 3.46875l1.75 -3.46875l2.78125 -5.468748l1.90625 0zm8.674133 10.765623q-0.96875 0.359375 -1.875 0.515625q-0.90625 0.15625 -1.734375 0.15625q-1.8125 0 -2.84375 -0.734375q-1.015625 -0.734375 -1.359375 -2.0q-0.34375 -1.265625 -0.09375 -2.859375l0.203125 -1.15625q0.359375 -2.21875 1.703125 -3.562498q1.359375 -1.34375 3.421875 -1.34375q1.015625 0 1.90625 0.359375q0.90625 0.359375 1.4375 1.140625q0.546875 0.7656231 0.546875 1.9687481q0 0.65625 -0.203125 1.390625q-0.1875 0.734375 -0.703125 1.59375l-6.546875 0q-0.203125 1.5625 0.359375 2.546875q0.578125 0.984375 2.34375 0.984375q0.625 0 1.4375 -0.140625q0.828125 -0.15625 1.703125 -0.4375l0.296875 1.578125zm-2.65625 -9.328123q-1.28125 0 -2.125 0.8437481q-0.84375 0.84375 -1.09375 2.375l5.078125 0q0.1875 -0.390625 0.234375 -0.734375q0.0625 -0.34375 0.0625 -0.625q0 -0.953125 -0.609375 -1.4062481q-0.609375 -0.453125 -1.546875 -0.453125zm14.505432 0.9062481l0.015625 6.015625l5.765625 -12.546873l1.859375 0l1.28125 12.578123l2.21875 -6.046875l2.5 -6.531248l2.015625 0l-6.09375 15.406248l-2.046875 0l-1.28125 -12.546873l-5.734375 12.546873l-2.046875 0l-0.65625 -15.406248l2.015625 0l0.1875 6.531248zm23.743591 8.421875q-0.96875 0.359375 -1.875 0.515625q-0.90625 0.15625 -1.734375 0.15625q-1.8125 0 -2.84375 -0.734375q-1.015625 -0.734375 -1.359375 -2.0q-0.34375 -1.265625 -0.09375 -2.859375l0.203125 -1.15625q0.359375 -2.21875 1.703125 -3.562498q1.359375 -1.34375 3.421875 -1.34375q1.015625 0 1.90625 0.359375q0.90625 0.359375 1.4375 1.140625q0.546875 0.7656231 0.546875 1.9687481q0 0.65625 -0.203125 1.390625q-0.1875 0.734375 -0.703125 1.59375l-6.546875 0q-0.203125 1.5625 0.359375 2.546875q0.578125 0.984375 2.34375 0.984375q0.625 0 1.4375 -0.140625q0.828125 -0.15625 1.703125 -0.4375l0.296875 1.578125zm-2.65625 -9.328123q-1.28125 0 -2.125 0.8437481q-0.84375 0.84375 -1.09375 2.375l5.078125 0q0.1875 -0.390625 0.234375 -0.734375q0.0625 -0.34375 0.0625 -0.625q0 -0.953125 -0.609375 -1.4062481q-0.609375 -0.453125 -1.546875 -0.453125zm10.285126 -4.171875l-2.078125 0l0.34375 -2.09375l2.078125 0l-0.34375 2.09375zm-2.59375 13.953123l-1.859375 0l1.984375 -11.218748l1.859375 0l-1.984375 11.218748zm12.6405945 0q-0.1875 1.046875 -0.5 1.953125q-0.296875 0.90625 -0.859375 1.609375q-0.5625 0.703125 -1.515625 1.09375q-0.9375 0.390625 -2.359375 0.390625q-0.90625 0 -1.8125 -0.1875q-0.890625 -0.171875 -1.796875 -0.53125l0.484375 -1.59375q0.828125 0.34375 1.59375 0.484375q0.765625 0.15625 1.453125 0.15625q1.28125 0 1.953125 -0.40625q0.6875 -0.40625 1.0 -1.171875q0.3125 -0.75 0.5 -1.796875l0.3125 -1.796875q-1.015625 1.125 -1.953125 1.578125q-0.9375 0.4375 -1.8125 0.4375q-1.125 0 -1.859375 -0.6875q-0.71875 -0.703125 -1.0 -1.921875q-0.265625 -1.234375 -0.03125 -2.78125l0.15625 -1.109375q0.359375 -2.46875 1.6875 -3.812498q1.328125 -1.34375 3.5625 -1.34375q1.203125 0 2.359375 0.375q1.15625 0.375 2.203125 1.046875l-1.765625 10.015623zm-6.28125 -5.171875q-0.25 1.796875 0.125 2.765625q0.390625 0.953125 1.375 0.953125q0.71875 0 1.640625 -0.578125q0.9375 -0.59375 2.0 -2.109375l0.890625 -4.96875q-1.265625 -0.6249981 -2.421875 -0.6249981q-1.515625 0 -2.359375 0.9218731q-0.84375 0.921875 -1.09375 2.53125l-0.15625 1.109375zm17.395294 -4.531248q-0.421875 0 -1.0 0.203125q-0.578125 0.1875 -1.328125 0.7343731q-0.75 0.546875 -1.71875 1.578125l-1.265625 7.1875l-1.859375 0l2.9375 -16.765623l1.859375 0l-1.3125 7.5q1.296875 -1.34375 2.328125 -1.75q1.03125 -0.421875 1.859375 -0.421875q1.5625 0 2.28125 1.109375q0.734375 1.1093731 0.421875 2.921873l-1.3125 7.40625l-1.859375 0l1.265625 -7.25q0.25 -1.21875 -0.109375 -1.828125q-0.34375 -0.6249981 -1.1875 -0.6249981zm12.030426 9.312498q-1.4375 0.609375 -2.734375 0.609375q-1.15625 0 -1.796875 -0.5q-0.625 -0.515625 -0.8125 -1.328125q-0.171875 -0.8125 -0.015625 -1.75l1.078125 -6.218748l-1.9375 0l0.265625 -1.640625l1.96875 0l0.546875 -3.125l1.859375 0l-0.546875 3.125l3.671875 0l-0.296875 1.640625l-3.671875 0l-1.109375 6.218748q-0.171875 1.046875 0.15625 1.46875q0.34375 0.421875 1.0 0.421875q0.359375 0 0.875 -0.09375q0.515625 -0.109375 1.09375 -0.390625l0.40625 1.5625zm7.9999695 -13.156248l0.34375 -1.859375l10.9375 0l-0.3125 1.859375l-4.484375 0l-2.40625 13.546873l-1.96875 0l2.40625 -13.546873l-4.515625 0zm14.077148 14.671873q-0.78125 1.4375 -1.546875 2.296875q-0.75 0.859375 -1.671875 1.234375q-0.90625 0.390625 -2.15625 0.390625l0.3125 -1.828125q0.796875 -0.03125 1.34375 -0.21875q0.546875 -0.171875 1.046875 -0.71875q0.515625 -0.53125 1.125 -1.640625l0.40625 -0.703125l-2.015625 -11.156248l1.84375 0l0.953125 5.468748l0.515625 3.4375l1.703125 -3.4375l2.78125 -5.468748l1.921875 0l-5.953125 11.218748l-0.609375 1.125zm11.521851 -15.078123l-2.078125 0l0.34375 -2.09375l2.078125 0l-0.34375 2.09375zm-2.59375 13.953123l-1.859375 0l1.984375 -11.218748l1.859375 0l-1.984375 11.218748zm11.2030945 -9.703123q-0.421875 0 -1.0 0.203125q-0.5625 0.1875 -1.3125 0.7187481q-0.734375 0.53125 -1.71875 1.578125l-1.28125 7.203125l-1.859375 0l1.984375 -11.218748l1.75 0l-0.34375 2.062498q1.34375 -1.4062481 2.390625 -1.8437481q1.0625 -0.4375 1.890625 -0.4375q1.546875 0 2.28125 1.125q0.734375 1.1093731 0.421875 2.906248l-1.3125 7.40625l-1.859375 0l1.265625 -7.25q0.453125 -2.453123 -1.296875 -2.453123zm14.328857 9.703123q-0.1875 1.046875 -0.5 1.953125q-0.296875 0.90625 -0.859375 1.609375q-0.5625 0.703125 -1.515625 1.09375q-0.9375 0.390625 -2.359375 0.390625q-0.90625 0 -1.8125 -0.1875q-0.890625 -0.171875 -1.796875 -0.53125l0.484375 -1.59375q0.828125 0.34375 1.59375 0.484375q0.765625 0.15625 1.453125 0.15625q1.28125 0 1.953125 -0.40625q0.6875 -0.40625 1.0 -1.171875q0.3125 -0.75 0.5 -1.796875l0.3125 -1.796875q-1.015625 1.125 -1.953125 1.578125q-0.9375 0.4375 -1.8125 0.4375q-1.125 0 -1.859375 -0.6875q-0.71875 -0.703125 -1.0 -1.921875q-0.265625 -1.234375 -0.03125 -2.78125l0.15625 -1.109375q0.359375 -2.46875 1.6875 -3.812498q1.328125 -1.34375 3.5625 -1.34375q1.203125 0 2.359375 0.375q1.15625 0.375 2.203125 1.046875l-1.765625 10.015623zm-6.28125 -5.171875q-0.25 1.796875 0.125 2.765625q0.390625 0.953125 1.375 0.953125q0.71875 0 1.640625 -0.578125q0.9375 -0.59375 2.0 -2.109375l0.890625 -4.96875q-1.265625 -0.6249981 -2.421875 -0.6249981q-1.515625 0 -2.359375 0.9218731q-0.84375 0.921875 -1.09375 2.53125l-0.15625 1.109375z" fill-rule="nonzero"/><path fill="#000000" fill-opacity="0.0" d="m196.97595 343.18106c0 16.332703 120.299225 32.641785 240.59842 32.665405c120.299225 0.023620605 240.59842 -16.23822 240.59842 -32.47644" fill-rule="evenodd"/><path stroke="#000000" stroke-width="2.0" stroke-linejoin="round" stroke-linecap="butt" stroke-dasharray="2.0,6.0" d="m196.97595 343.18106c0 16.332703 120.299225 32.641785 240.59842 32.665405c120.299225 0.023620605 240.59842 -16.23822 240.59842 -32.47644" fill-rule="evenodd"/><path fill="#000000" fill-opacity="0.0" d="m342.16666 335.39502l326.04727 0l0 42.015747l-326.04727 0z" fill-rule="evenodd"/><path fill="#000000" d="m358.46353 358.78375l1.65625 0.171875q-0.625 1.8125 -1.765625 2.703125q-1.140625 0.875 -2.609375 0.875q-1.578125 0 -2.5625 -1.015625q-0.96875 -1.03125 -0.96875 -2.859375q0 -1.578125 0.625 -3.109375q0.640625 -1.53125 1.796875 -2.328125q1.171875 -0.796875 2.6875 -0.796875q1.546875 0 2.453125 0.875q0.921875 0.875 0.921875 2.328125l-1.625 0.109375q-0.015625 -0.921875 -0.546875 -1.4375q-0.515625 -0.515625 -1.359375 -0.515625q-1.0 0 -1.734375 0.625q-0.71875 0.625 -1.140625 1.90625q-0.40625 1.28125 -0.40625 2.46875q0 1.234375 0.546875 1.859375q0.546875 0.609375 1.34375 0.609375q0.796875 0 1.53125 -0.609375q0.734375 -0.609375 1.15625 -1.859375zm2.9375 -0.140625q0 -2.828125 1.671875 -4.6875q1.375 -1.53125 3.609375 -1.53125q1.75 0 2.8125 1.09375q1.078125 1.09375 1.078125 2.953125q0 1.65625 -0.671875 3.09375q-0.671875 1.4375 -1.921875 2.203125q-1.25 0.765625 -2.625 0.765625q-1.125 0 -2.046875 -0.484375q-0.921875 -0.484375 -1.421875 -1.359375q-0.484375 -0.890625 -0.484375 -2.046875zm1.65625 -0.15625q0 1.359375 0.65625 2.0625q0.65625 0.703125 1.65625 0.703125q0.53125 0 1.046875 -0.203125q0.53125 -0.21875 0.96875 -0.65625q0.453125 -0.4375 0.765625 -1.0q0.3125 -0.5625 0.5 -1.203125q0.28125 -0.90625 0.28125 -1.734375q0 -1.3125 -0.65625 -2.03125q-0.65625 -0.734375 -1.65625 -0.734375q-0.78125 0 -1.421875 0.375q-0.625 0.375 -1.140625 1.09375q-0.515625 0.703125 -0.765625 1.640625q-0.234375 0.9375 -0.234375 1.6875zm7.6257324 7.53125l2.796875 -13.375l1.515625 0l-0.28125 1.34375q0.84375 -0.875 1.515625 -1.21875q0.671875 -0.34375 1.421875 -0.34375q1.375 0 2.28125 1.015625q0.921875 1.0 0.921875 2.875q0 1.515625 -0.5 2.765625q-0.5 1.234375 -1.234375 2.0q-0.71875 0.75 -1.46875 1.109375q-0.75 0.34375 -1.53125 0.34375q-1.75 0 -2.703125 -1.765625l-1.09375 5.25l-1.640625 0zm3.25 -7.65625q0 1.078125 0.15625 1.5q0.234375 0.59375 0.75 0.96875q0.515625 0.359375 1.203125 0.359375q1.421875 0 2.296875 -1.59375q0.875 -1.609375 0.875 -3.28125q0 -1.21875 -0.59375 -1.890625q-0.578125 -0.671875 -1.453125 -0.671875q-0.625 0 -1.171875 0.34375q-0.53125 0.328125 -1.0 0.984375q-0.453125 0.65625 -0.765625 1.609375q-0.296875 0.953125 -0.296875 1.671875zm7.313202 7.6875l0.09375 -1.546875q0.515625 0.140625 1.0 0.140625q0.5 0 0.8125 -0.21875q0.40625 -0.3125 0.875 -1.140625l0.53125 -0.9375l-1.625 -9.703125l1.625 0l0.734375 4.890625q0.21875 1.453125 0.375 2.890625l4.328125 -7.78125l1.71875 0l-6.171875 10.953125q-0.890625 1.609375 -1.59375 2.125q-0.6875 0.515625 -1.578125 0.515625q-0.578125 0 -1.125 -0.1875z" fill-rule="nonzero"/><path fill="#000000" fill-opacity="0.0" d="m766.7416 46.31365l143.05511 0l0 45.259846l-143.05511 0z" fill-rule="evenodd"/><path fill="#000000" d="m779.00385 75.79365l2.546875 -14.5l4.0625 0q2.0 0 2.953125 1.09375q0.96875 1.078125 0.671875 2.84375l-0.09375 0.5q-0.296875 1.84375 -1.984375 2.65625q0.9375 0.453125 1.34375 1.328125q0.40625 0.859375 0.21875 1.96875l-0.0625 0.484375q-0.28125 1.703125 -1.390625 2.671875q-1.109375 0.953125 -3.234375 0.953125l-5.03125 0zm6.515625 -12.796875l-2.40625 0l-0.8125 4.578125l2.40625 0q1.078125 0 1.71875 -0.484375q0.640625 -0.484375 0.78125 -1.34375l0.109375 -0.515625q0.171875 -1.046875 -0.28125 -1.640625q-0.4375 -0.59375 -1.515625 -0.59375zm-0.578125 6.296875l-2.9375 0l-0.859375 4.8125l2.953125 0q1.125 0 1.8125 -0.515625q0.6875 -0.53125 0.828125 -1.4375l0.09375 -0.515625q0.171875 -1.0625 -0.3125 -1.703125q-0.46875 -0.640625 -1.578125 -0.640625zm14.951477 6.609375q-1.03125 0 -1.546875 -0.515625q-0.5 -0.53125 -0.53125 -1.328125q-1.0 1.09375 -1.921875 1.53125q-0.921875 0.421875 -1.734375 0.421875q-1.046875 0 -1.71875 -0.65625q-0.671875 -0.671875 -0.921875 -1.8125q-0.25 -1.15625 -0.046875 -2.609375l0.15625 -1.046875q0.34375 -2.28125 1.59375 -3.5625q1.265625 -1.296875 3.3125 -1.296875q1.0625 0 2.109375 0.359375q1.0625 0.34375 2.046875 0.984375l-1.15625 6.546875q-0.109375 0.640625 0.046875 1.015625q0.15625 0.359375 0.6875 0.359375l0.296875 0l-0.296875 1.609375l-0.375 0zm-6.609375 -4.96875q-0.234375 1.6875 0.125 2.59375q0.375 0.90625 1.21875 0.90625q0.640625 0 1.484375 -0.546875q0.859375 -0.5625 1.84375 -1.953125l0.828125 -4.734375q-1.140625 -0.578125 -2.140625 -0.578125q-1.390625 0 -2.203125 0.90625q-0.796875 0.90625 -1.0 2.359375l-0.15625 1.046875zm15.4435425 4.5q-1.359375 0.578125 -2.578125 0.578125q-1.09375 0 -1.6875 -0.484375q-0.59375 -0.484375 -0.765625 -1.25q-0.171875 -0.765625 -0.015625 -1.640625l1.015625 -5.859375l-1.828125 0l0.25 -1.546875l1.859375 0l0.515625 -2.9375l1.75 0l-0.515625 2.9375l3.453125 0l-0.28125 1.546875l-3.453125 0l-1.046875 5.859375q-0.171875 0.984375 0.140625 1.375q0.328125 0.390625 0.953125 0.390625q0.34375 0 0.8125 -0.09375q0.484375 -0.09375 1.046875 -0.34375l0.375 1.46875zm7.506775 -8.796875q-1.171875 0 -1.96875 0.78125q-0.78125 0.78125 -1.015625 2.234375l-0.1875 1.15625q-0.265625 1.578125 0.1875 2.59375q0.46875 1.0 2.0 1.0q1.140625 0 2.59375 -0.53125l0.296875 1.515625q-1.6875 0.625 -3.03125 0.625q-1.578125 0 -2.5 -0.6875q-0.921875 -0.703125 -1.21875 -1.890625q-0.296875 -1.203125 -0.0625 -2.703125l0.171875 -1.078125q0.359375 -2.15625 1.578125 -3.390625q1.234375 -1.234375 3.109375 -1.234375q0.78125 0 1.5625 0.21875q0.796875 0.203125 1.578125 0.59375l-0.609375 1.484375q-0.671875 -0.3125 -1.296875 -0.5q-0.625 -0.1875 -1.1875 -0.1875zm11.119019 0.03125q-0.40625 0 -0.953125 0.1875q-0.546875 0.171875 -1.25 0.6875q-0.703125 0.515625 -1.625 1.484375l-1.1875 6.765625l-1.75 0l2.78125 -15.78125l1.734375 0l-1.234375 7.0625q1.21875 -1.265625 2.1875 -1.65625q0.96875 -0.390625 1.765625 -0.390625q1.46875 0 2.140625 1.046875q0.6875 1.03125 0.390625 2.75l-1.234375 6.96875l-1.75 0l1.203125 -6.828125q0.234375 -1.15625 -0.109375 -1.71875q-0.328125 -0.578125 -1.109375 -0.578125zm15.968567 8.765625q-1.359375 0.578125 -2.578125 0.578125q-1.09375 0 -1.6875 -0.484375q-0.59375 -0.484375 -0.765625 -1.25q-0.171875 -0.765625 -0.015625 -1.640625l1.015625 -5.859375l-1.828125 0l0.25 -1.546875l1.859375 0l0.515625 -2.9375l1.75 0l-0.515625 2.9375l3.453125 0l-0.28125 1.546875l-3.453125 0l-1.046875 5.859375q-0.171875 0.984375 0.140625 1.375q0.328125 0.390625 0.953125 0.390625q0.34375 0 0.8125 -0.09375q0.484375 -0.09375 1.046875 -0.34375l0.375 1.46875zm11.600464 -5.140625l-0.171875 1.0625q-0.328125 2.265625 -1.609375 3.46875q-1.265625 1.1875 -3.296875 1.1875q-1.484375 0 -2.453125 -0.6875q-0.96875 -0.6875 -1.359375 -1.875q-0.375 -1.203125 -0.140625 -2.71875l0.15625 -1.078125q0.375 -2.171875 1.609375 -3.390625q1.25 -1.234375 3.296875 -1.234375q1.515625 0 2.46875 0.703125q0.96875 0.703125 1.34375 1.890625q0.390625 1.171875 0.15625 2.671875zm-1.8125 -0.046875q0.265625 -1.59375 -0.296875 -2.609375q-0.546875 -1.015625 -1.875 -1.015625q-1.234375 0 -2.046875 0.796875q-0.796875 0.78125 -1.03125 2.234375l-0.15625 1.125q-0.265625 1.640625 0.296875 2.65625q0.578125 1.0 1.875 1.0q1.234375 0 2.03125 -0.78125q0.796875 -0.78125 1.03125 -2.296875l0.171875 -1.109375zm10.581238 5.546875l-2.125 -4.90625q-0.46875 0.40625 -1.015625 0.828125q-0.53125 0.40625 -1.078125 0.84375l-0.578125 3.234375l-1.75 0l2.796875 -15.78125l1.75 0l-1.875 10.578125q1.59375 -1.328125 2.875 -2.59375q1.296875 -1.265625 2.40625 -2.765625l2.09375 0q-0.984375 1.3125 -2.015625 2.421875q-1.015625 1.109375 -2.1875 2.21875l2.734375 5.921875l-2.03125 0zm11.706421 -0.421875q-0.90625 0.34375 -1.765625 0.484375q-0.859375 0.15625 -1.625 0.15625q-1.703125 0 -2.671875 -0.6875q-0.96875 -0.703125 -1.296875 -1.890625q-0.3125 -1.203125 -0.078125 -2.703125l0.1875 -1.078125q0.34375 -2.09375 1.609375 -3.359375q1.265625 -1.265625 3.21875 -1.265625q0.953125 0 1.796875 0.34375q0.84375 0.328125 1.34375 1.0625q0.515625 0.71875 0.515625 1.859375q0 0.609375 -0.1875 1.3125q-0.171875 0.6875 -0.65625 1.5l-6.171875 0q-0.1875 1.46875 0.34375 2.40625q0.53125 0.921875 2.203125 0.921875q0.59375 0 1.359375 -0.140625q0.765625 -0.140625 1.609375 -0.421875l0.265625 1.5zm-2.484375 -8.796875q-1.21875 0 -2.015625 0.8125q-0.78125 0.796875 -1.015625 2.21875l4.78125 0q0.15625 -0.359375 0.203125 -0.671875q0.0625 -0.328125 0.0625 -0.609375q0 -0.890625 -0.578125 -1.3125q-0.5625 -0.4375 -1.4375 -0.4375zm12.239502 0.09375q-0.40625 0 -0.9375 0.1875q-0.53125 0.171875 -1.25 0.671875q-0.703125 0.5 -1.609375 1.484375l-1.21875 6.78125l-1.75 0l1.875 -10.5625l1.640625 0l-0.3125 1.953125q1.25 -1.328125 2.234375 -1.734375q1.0 -0.421875 1.796875 -0.421875q1.453125 0 2.140625 1.0625q0.6875 1.046875 0.390625 2.734375l-1.234375 6.96875l-1.75 0l1.203125 -6.828125q0.421875 -2.296875 -1.21875 -2.296875zm8.256531 7.78125q1.234375 0 1.765625 -0.421875q0.546875 -0.4375 0.546875 -1.109375q0 -0.5625 -0.34375 -0.890625q-0.328125 -0.34375 -1.140625 -0.65625l-1.03125 -0.390625q-1.078125 -0.40625 -1.625 -1.09375q-0.546875 -0.6875 -0.546875 -1.734375q0 -0.84375 0.375 -1.546875q0.375 -0.703125 1.203125 -1.140625q0.828125 -0.4375 2.171875 -0.4375q1.640625 0 3.328125 0.765625l-0.546875 1.484375q-0.765625 -0.359375 -1.453125 -0.515625q-0.6875 -0.15625 -1.359375 -0.15625q-1.046875 0 -1.515625 0.390625q-0.453125 0.375 -0.453125 1.03125q0 0.46875 0.28125 0.8125q0.296875 0.34375 1.0 0.625l1.046875 0.375q1.171875 0.421875 1.765625 1.109375q0.59375 0.6875 0.59375 1.765625q0 0.84375 -0.40625 1.609375q-0.40625 0.75 -1.3125 1.21875q-0.90625 0.46875 -2.390625 0.46875q-1.765625 0 -3.5625 -0.796875l0.546875 -1.46875q0.84375 0.359375 1.578125 0.53125q0.75 0.171875 1.484375 0.171875z" fill-rule="nonzero"/></g></svg>